<mxfile host="app.diagrams.net" agent="Mozilla/5.0 (Windows NT 10.0; Win64; x64) AppleWebKit/537.36 (KHTML, like Gecko) Chrome/134.0.0.0 Safari/537.36" version="26.1.3" pages="4">
  <diagram name="Componentes" id="Hr5Lzy8-_08L1F_6YtW8">
    <mxGraphModel dx="2922" dy="757" grid="1" gridSize="10" guides="1" tooltips="1" connect="1" arrows="1" fold="1" page="1" pageScale="1" pageWidth="850" pageHeight="1100" math="0" shadow="0">
      <root>
        <mxCell id="ibalX00g9vt64yQpozJs-0" />
        <mxCell id="ibalX00g9vt64yQpozJs-1" parent="ibalX00g9vt64yQpozJs-0" />
        <mxCell id="ibalX00g9vt64yQpozJs-2" value="&lt;div&gt;&lt;br&gt;&lt;/div&gt;" style="html=1;dropTarget=0;whiteSpace=wrap;" parent="ibalX00g9vt64yQpozJs-1" vertex="1">
          <mxGeometry x="-500" y="300" width="300" height="440" as="geometry" />
        </mxCell>
        <mxCell id="ibalX00g9vt64yQpozJs-3" value="" style="shape=module;jettyWidth=8;jettyHeight=4;" parent="ibalX00g9vt64yQpozJs-2" vertex="1">
          <mxGeometry x="1" width="20" height="20" relative="1" as="geometry">
            <mxPoint x="-27" y="7" as="offset" />
          </mxGeometry>
        </mxCell>
        <mxCell id="ibalX00g9vt64yQpozJs-13" value="&lt;div&gt;&lt;br&gt;&lt;/div&gt;" style="html=1;dropTarget=0;whiteSpace=wrap;" parent="ibalX00g9vt64yQpozJs-1" vertex="1">
          <mxGeometry x="-1000" y="256" width="230" height="280" as="geometry" />
        </mxCell>
        <mxCell id="ibalX00g9vt64yQpozJs-14" value="" style="shape=module;jettyWidth=8;jettyHeight=4;" parent="ibalX00g9vt64yQpozJs-13" vertex="1">
          <mxGeometry x="1" width="20" height="20" relative="1" as="geometry">
            <mxPoint x="-27" y="7" as="offset" />
          </mxGeometry>
        </mxCell>
        <mxCell id="ibalX00g9vt64yQpozJs-4" value="&lt;div&gt;&lt;br&gt;&lt;/div&gt;" style="html=1;dropTarget=0;whiteSpace=wrap;" parent="ibalX00g9vt64yQpozJs-1" vertex="1">
          <mxGeometry x="-1000" y="605" width="230" height="150" as="geometry" />
        </mxCell>
        <mxCell id="ibalX00g9vt64yQpozJs-5" value="" style="shape=module;jettyWidth=8;jettyHeight=4;" parent="ibalX00g9vt64yQpozJs-4" vertex="1">
          <mxGeometry x="1" width="20" height="20" relative="1" as="geometry">
            <mxPoint x="-27" y="7" as="offset" />
          </mxGeometry>
        </mxCell>
        <mxCell id="UevffBtBP-o2EY0w1ZIJ-2" value="" style="rounded=0;orthogonalLoop=1;jettySize=auto;html=1;" parent="ibalX00g9vt64yQpozJs-1" source="ibalX00g9vt64yQpozJs-6" target="Fhr26TY9afIAGjRqi2eX-6" edge="1">
          <mxGeometry relative="1" as="geometry">
            <mxPoint x="-790" y="420" as="targetPoint" />
          </mxGeometry>
        </mxCell>
        <mxCell id="CGJvHUNieDKuwBb52tQV-4" style="rounded=0;orthogonalLoop=1;jettySize=auto;html=1;startArrow=classic;startFill=1;exitX=1;exitY=0.75;exitDx=0;exitDy=0;" parent="ibalX00g9vt64yQpozJs-1" source="ibalX00g9vt64yQpozJs-6" target="YT_dUnnxunZ9NrD1JXKK-0" edge="1">
          <mxGeometry relative="1" as="geometry" />
        </mxCell>
        <mxCell id="M53GRtngGgM_h6OnEpN9-3" style="rounded=0;orthogonalLoop=1;jettySize=auto;html=1;" parent="ibalX00g9vt64yQpozJs-1" source="ibalX00g9vt64yQpozJs-6" target="vuIAr291Dgmtw0vhvdgS-3" edge="1">
          <mxGeometry relative="1" as="geometry" />
        </mxCell>
        <mxCell id="ibalX00g9vt64yQpozJs-6" value="&lt;div&gt;«Microservicio»&lt;b&gt;&lt;br&gt;&lt;/b&gt;&lt;/div&gt;&lt;div&gt;&lt;b&gt;device-reissuance&lt;/b&gt;&lt;/div&gt;&lt;div&gt;&lt;b&gt;+ MPB2&lt;/b&gt;&lt;/div&gt;&lt;div&gt;&lt;b&gt;&lt;br&gt;&lt;/b&gt;&lt;/div&gt;&lt;div&gt;&lt;b&gt;&lt;br&gt;&lt;/b&gt;&lt;/div&gt;&lt;div&gt;&lt;b&gt;&lt;br&gt;&lt;/b&gt;&lt;/div&gt;&lt;div&gt;&lt;b&gt;&lt;br&gt;&lt;/b&gt;&lt;/div&gt;&lt;div&gt;&lt;b&gt;&lt;br&gt;&lt;/b&gt;&lt;/div&gt;&lt;div&gt;&lt;b&gt;&lt;br&gt;&lt;/b&gt;&lt;/div&gt;&lt;div&gt;&lt;b&gt;&lt;br&gt;&lt;/b&gt;&lt;/div&gt;&lt;div&gt;&lt;b&gt;&lt;br&gt;&lt;/b&gt;&lt;/div&gt;" style="html=1;dropTarget=0;whiteSpace=wrap;fillColor=#d5e8d4;strokeColor=#82b366;" parent="ibalX00g9vt64yQpozJs-1" vertex="1">
          <mxGeometry x="-440" y="360" width="180" height="180" as="geometry" />
        </mxCell>
        <mxCell id="ibalX00g9vt64yQpozJs-7" value="" style="shape=module;jettyWidth=8;jettyHeight=4;" parent="ibalX00g9vt64yQpozJs-6" vertex="1">
          <mxGeometry x="1" width="20" height="20" relative="1" as="geometry">
            <mxPoint x="-27" y="7" as="offset" />
          </mxGeometry>
        </mxCell>
        <mxCell id="ibalX00g9vt64yQpozJs-10" value="" style="html=1;verticalAlign=bottom;endArrow=block;rounded=0;exitX=1;exitY=0.5;exitDx=0;exitDy=0;" parent="ibalX00g9vt64yQpozJs-1" source="XT8RGr_UCAY49mzGf--c-0" target="Xr6SCrK0ljmYc6vUD68w-12" edge="1">
          <mxGeometry width="80" relative="1" as="geometry">
            <mxPoint x="-270" y="523" as="sourcePoint" />
            <mxPoint x="165" y="408" as="targetPoint" />
            <mxPoint as="offset" />
          </mxGeometry>
        </mxCell>
        <mxCell id="ibalX00g9vt64yQpozJs-15" value="" style="rounded=0;whiteSpace=wrap;html=1;fillColor=#d5e8d4;strokeColor=#82b366;" parent="ibalX00g9vt64yQpozJs-1" vertex="1">
          <mxGeometry x="-1306" y="98" width="50" height="20" as="geometry" />
        </mxCell>
        <mxCell id="ibalX00g9vt64yQpozJs-16" value="Componente Nuevo" style="text;html=1;strokeColor=none;fillColor=none;align=left;verticalAlign=middle;whiteSpace=wrap;rounded=0;" parent="ibalX00g9vt64yQpozJs-1" vertex="1">
          <mxGeometry x="-1246" y="98" width="110" height="20" as="geometry" />
        </mxCell>
        <mxCell id="ibalX00g9vt64yQpozJs-17" value="" style="rounded=0;whiteSpace=wrap;html=1;fillColor=#fff2cc;strokeColor=#d6b656;" parent="ibalX00g9vt64yQpozJs-1" vertex="1">
          <mxGeometry x="-1306" y="128" width="50" height="20" as="geometry" />
        </mxCell>
        <mxCell id="ibalX00g9vt64yQpozJs-18" value="Componente reutilizado" style="text;html=1;strokeColor=none;fillColor=none;align=left;verticalAlign=middle;whiteSpace=wrap;rounded=0;" parent="ibalX00g9vt64yQpozJs-1" vertex="1">
          <mxGeometry x="-1246" y="128" width="130" height="20" as="geometry" />
        </mxCell>
        <mxCell id="ibalX00g9vt64yQpozJs-19" value="" style="rounded=0;whiteSpace=wrap;html=1;fillColor=#e1d5e7;strokeColor=#9673a6;" parent="ibalX00g9vt64yQpozJs-1" vertex="1">
          <mxGeometry x="-1306" y="189" width="50" height="20" as="geometry" />
        </mxCell>
        <mxCell id="ibalX00g9vt64yQpozJs-20" value="Componentes / estructuras en infraestructura transversal" style="text;html=1;strokeColor=none;fillColor=none;align=left;verticalAlign=middle;whiteSpace=wrap;rounded=0;" parent="ibalX00g9vt64yQpozJs-1" vertex="1">
          <mxGeometry x="-1246" y="189" width="350" height="20" as="geometry" />
        </mxCell>
        <mxCell id="ibalX00g9vt64yQpozJs-21" value="&lt;div&gt;«Log component»&lt;b&gt;&lt;br&gt;&lt;/b&gt;&lt;/div&gt;&lt;div&gt;&lt;b&gt;Kafka Cluster&lt;/b&gt;&lt;/div&gt;" style="html=1;dropTarget=0;whiteSpace=wrap;fillColor=#e1d5e7;strokeColor=#9673a6;" parent="ibalX00g9vt64yQpozJs-1" vertex="1">
          <mxGeometry x="-70" y="322.5" width="180" height="90" as="geometry" />
        </mxCell>
        <mxCell id="ibalX00g9vt64yQpozJs-22" value="" style="shape=module;jettyWidth=8;jettyHeight=4;" parent="ibalX00g9vt64yQpozJs-21" vertex="1">
          <mxGeometry x="1" width="20" height="20" relative="1" as="geometry">
            <mxPoint x="-27" y="7" as="offset" />
          </mxGeometry>
        </mxCell>
        <mxCell id="mw78Khjm8ICX6KQG7Wsu-0" value="«Canales Santander MX»" style="text;html=1;align=center;verticalAlign=middle;whiteSpace=wrap;rounded=0;" parent="ibalX00g9vt64yQpozJs-1" vertex="1">
          <mxGeometry x="-955" y="605" width="140" height="30" as="geometry" />
        </mxCell>
        <mxCell id="mw78Khjm8ICX6KQG7Wsu-1" value="&lt;div&gt;«Plataforma Altair»&lt;b&gt;&lt;br&gt;&lt;/b&gt;&lt;/div&gt;&lt;div&gt;&lt;b&gt;Front Medios Pago&lt;/b&gt;&lt;/div&gt;&lt;div&gt;&lt;b&gt;Centel&lt;/b&gt;&lt;/div&gt;" style="html=1;dropTarget=0;whiteSpace=wrap;fillColor=#fff2cc;strokeColor=#d6b656;" parent="ibalX00g9vt64yQpozJs-1" vertex="1">
          <mxGeometry x="-975" y="645" width="180" height="90" as="geometry" />
        </mxCell>
        <mxCell id="mw78Khjm8ICX6KQG7Wsu-2" value="" style="shape=module;jettyWidth=8;jettyHeight=4;" parent="mw78Khjm8ICX6KQG7Wsu-1" vertex="1">
          <mxGeometry x="1" width="20" height="20" relative="1" as="geometry">
            <mxPoint x="-27" y="7" as="offset" />
          </mxGeometry>
        </mxCell>
        <mxCell id="mw78Khjm8ICX6KQG7Wsu-7" value="" style="html=1;verticalAlign=bottom;endArrow=block;rounded=0;edgeStyle=orthogonalEdgeStyle;exitX=1;exitY=0.5;exitDx=0;exitDy=0;" parent="ibalX00g9vt64yQpozJs-1" source="ibalX00g9vt64yQpozJs-4" target="CGJvHUNieDKuwBb52tQV-0" edge="1">
          <mxGeometry x="0.0016" width="80" relative="1" as="geometry">
            <mxPoint x="-705" y="595" as="sourcePoint" />
            <mxPoint x="-350" y="439" as="targetPoint" />
            <mxPoint as="offset" />
          </mxGeometry>
        </mxCell>
        <mxCell id="CGJvHUNieDKuwBb52tQV-2" style="edgeStyle=orthogonalEdgeStyle;rounded=0;orthogonalLoop=1;jettySize=auto;html=1;" parent="ibalX00g9vt64yQpozJs-1" source="mw78Khjm8ICX6KQG7Wsu-5" target="CGJvHUNieDKuwBb52tQV-0" edge="1">
          <mxGeometry relative="1" as="geometry" />
        </mxCell>
        <mxCell id="WAyySOAWvUpvXSL9j0dH-3" style="edgeStyle=orthogonalEdgeStyle;rounded=0;orthogonalLoop=1;jettySize=auto;html=1;" parent="ibalX00g9vt64yQpozJs-1" source="mw78Khjm8ICX6KQG7Wsu-5" target="WAyySOAWvUpvXSL9j0dH-2" edge="1">
          <mxGeometry relative="1" as="geometry">
            <Array as="points">
              <mxPoint x="-180" y="650" />
              <mxPoint x="-180" y="725" />
            </Array>
          </mxGeometry>
        </mxCell>
        <mxCell id="uwjMrfqby6ekMZz9i17e-2" style="edgeStyle=orthogonalEdgeStyle;rounded=0;orthogonalLoop=1;jettySize=auto;html=1;" parent="ibalX00g9vt64yQpozJs-1" source="mw78Khjm8ICX6KQG7Wsu-5" target="uwjMrfqby6ekMZz9i17e-0" edge="1">
          <mxGeometry relative="1" as="geometry" />
        </mxCell>
        <mxCell id="mw78Khjm8ICX6KQG7Wsu-5" value="&lt;div&gt;«Microservicio»&lt;b&gt;&lt;br&gt;&lt;/b&gt;&lt;/div&gt;&lt;div&gt;&lt;b&gt;Launcher&lt;/b&gt;&lt;/div&gt;" style="html=1;dropTarget=0;whiteSpace=wrap;fillColor=#fff2cc;strokeColor=#d6b656;" parent="ibalX00g9vt64yQpozJs-1" vertex="1">
          <mxGeometry x="-440" y="590" width="180" height="120" as="geometry" />
        </mxCell>
        <mxCell id="mw78Khjm8ICX6KQG7Wsu-6" value="" style="shape=module;jettyWidth=8;jettyHeight=4;" parent="mw78Khjm8ICX6KQG7Wsu-5" vertex="1">
          <mxGeometry x="1" width="20" height="20" relative="1" as="geometry">
            <mxPoint x="-27" y="7" as="offset" />
          </mxGeometry>
        </mxCell>
        <mxCell id="YT_dUnnxunZ9NrD1JXKK-2" style="edgeStyle=orthogonalEdgeStyle;rounded=0;orthogonalLoop=1;jettySize=auto;html=1;startArrow=classic;startFill=1;exitX=0.5;exitY=0;exitDx=0;exitDy=0;" parent="ibalX00g9vt64yQpozJs-1" source="mw78Khjm8ICX6KQG7Wsu-5" target="YT_dUnnxunZ9NrD1JXKK-0" edge="1">
          <mxGeometry relative="1" as="geometry">
            <mxPoint x="-290" y="513" as="sourcePoint" />
          </mxGeometry>
        </mxCell>
        <mxCell id="mw78Khjm8ICX6KQG7Wsu-16" value="&lt;div&gt;«Capa de Integración»&lt;/div&gt;" style="text;html=1;align=center;verticalAlign=middle;whiteSpace=wrap;rounded=0;" parent="ibalX00g9vt64yQpozJs-1" vertex="1">
          <mxGeometry x="-421" y="300" width="140" height="30" as="geometry" />
        </mxCell>
        <mxCell id="k2TCZtdQKbIll1BBhbGv-0" value="&lt;div&gt;«Plataforma PLARD»&lt;/div&gt;" style="text;html=1;align=center;verticalAlign=middle;whiteSpace=wrap;rounded=0;" parent="ibalX00g9vt64yQpozJs-1" vertex="1">
          <mxGeometry x="-945" y="256" width="120" height="30" as="geometry" />
        </mxCell>
        <mxCell id="UevffBtBP-o2EY0w1ZIJ-15" value="- Los canales pueden realizar peticiones vía MQ o vía API Rest.&lt;div&gt;- La peticiones MQ viajan al Launcher. Si es una tarjeta PAMPA manda la petición a los MQ de PAMPA. Si es una tarjeta PLARD, manda la petición al Redis Stream. (Si la consulta no es por tarjeta, entonces siempre va al Redis Stream).&lt;/div&gt;&lt;div&gt;- Las peticiones vía API Rest llegan al API expuesta por el servicio account-device-inquiry.&lt;br&gt;&lt;br&gt;&lt;/div&gt;" style="text;html=1;align=left;verticalAlign=top;whiteSpace=wrap;rounded=0;" parent="ibalX00g9vt64yQpozJs-1" vertex="1">
          <mxGeometry x="-1296" y="599.25" width="230" height="181.5" as="geometry" />
        </mxCell>
        <mxCell id="CGJvHUNieDKuwBb52tQV-0" value="&lt;div&gt;«Message Queue»&lt;b&gt;&lt;br&gt;&lt;/b&gt;&lt;/div&gt;&lt;div&gt;&lt;b&gt;MQ 390 Altair&lt;/b&gt;&lt;/div&gt;" style="rounded=0;whiteSpace=wrap;html=1;" parent="ibalX00g9vt64yQpozJs-1" vertex="1">
          <mxGeometry x="-690" y="650" width="120" height="60" as="geometry" />
        </mxCell>
        <mxCell id="WAyySOAWvUpvXSL9j0dH-0" value="" style="html=1;dropTarget=0;whiteSpace=wrap;" parent="ibalX00g9vt64yQpozJs-1" vertex="1">
          <mxGeometry x="-205" y="870" width="230" height="120" as="geometry" />
        </mxCell>
        <mxCell id="WAyySOAWvUpvXSL9j0dH-1" value="" style="shape=module;jettyWidth=8;jettyHeight=4;" parent="WAyySOAWvUpvXSL9j0dH-0" vertex="1">
          <mxGeometry x="1" width="20" height="20" relative="1" as="geometry">
            <mxPoint x="-27" y="7" as="offset" />
          </mxGeometry>
        </mxCell>
        <mxCell id="WAyySOAWvUpvXSL9j0dH-2" value="&lt;div&gt;«Message Queue»&lt;b&gt;&lt;br&gt;&lt;/b&gt;&lt;/div&gt;&lt;div&gt;&lt;b&gt;MQ 390&lt;/b&gt;&lt;/div&gt;" style="rounded=0;whiteSpace=wrap;html=1;" parent="ibalX00g9vt64yQpozJs-1" vertex="1">
          <mxGeometry x="-150" y="695.5" width="120" height="60" as="geometry" />
        </mxCell>
        <mxCell id="WAyySOAWvUpvXSL9j0dH-8" value="&lt;div&gt;«Mainframe»&lt;/div&gt;" style="text;html=1;align=center;verticalAlign=middle;whiteSpace=wrap;rounded=0;" parent="ibalX00g9vt64yQpozJs-1" vertex="1">
          <mxGeometry x="-150" y="870" width="120" height="30" as="geometry" />
        </mxCell>
        <mxCell id="WAyySOAWvUpvXSL9j0dH-9" value="&lt;div style=&quot;text-align: center;&quot;&gt;«PAMPA»&lt;/div&gt;&lt;div&gt;&lt;div&gt;&lt;b&gt;MPB2 [Reemisión de tarjetas]&lt;/b&gt;&lt;/div&gt;&lt;/div&gt;" style="html=1;dropTarget=0;whiteSpace=wrap;fillColor=#fff2cc;strokeColor=#d6b656;align=left;" parent="ibalX00g9vt64yQpozJs-1" vertex="1">
          <mxGeometry x="-185" y="900" width="180" height="70" as="geometry" />
        </mxCell>
        <mxCell id="WAyySOAWvUpvXSL9j0dH-10" value="" style="shape=module;jettyWidth=8;jettyHeight=4;" parent="WAyySOAWvUpvXSL9j0dH-9" vertex="1">
          <mxGeometry x="1" width="20" height="20" relative="1" as="geometry">
            <mxPoint x="-27" y="7" as="offset" />
          </mxGeometry>
        </mxCell>
        <mxCell id="YT_dUnnxunZ9NrD1JXKK-0" value="&lt;div&gt;«Event component»&lt;b&gt;&lt;br&gt;&lt;/b&gt;&lt;/div&gt;&lt;div&gt;&lt;b&gt;Redis Streams&lt;/b&gt;&lt;/div&gt;" style="html=1;dropTarget=0;whiteSpace=wrap;fillColor=#e1d5e7;strokeColor=#9673a6;" parent="ibalX00g9vt64yQpozJs-1" vertex="1">
          <mxGeometry x="-70" y="460" width="180" height="90" as="geometry" />
        </mxCell>
        <mxCell id="YT_dUnnxunZ9NrD1JXKK-1" value="" style="shape=module;jettyWidth=8;jettyHeight=4;" parent="YT_dUnnxunZ9NrD1JXKK-0" vertex="1">
          <mxGeometry x="1" width="20" height="20" relative="1" as="geometry">
            <mxPoint x="-27" y="7" as="offset" />
          </mxGeometry>
        </mxCell>
        <mxCell id="Fhr26TY9afIAGjRqi2eX-6" value="&lt;div&gt;«Service»&lt;b&gt;&lt;br&gt;&lt;/b&gt;&lt;/div&gt;&lt;div&gt;&lt;div style=&quot;&quot;&gt;&lt;b&gt;Device Life Cycle&lt;/b&gt;&lt;/div&gt;&lt;/div&gt;" style="html=1;dropTarget=0;whiteSpace=wrap;fillColor=#fff2cc;strokeColor=#d6b656;" parent="ibalX00g9vt64yQpozJs-1" vertex="1">
          <mxGeometry x="-975" y="426" width="180" height="90" as="geometry" />
        </mxCell>
        <mxCell id="Fhr26TY9afIAGjRqi2eX-7" value="" style="shape=module;jettyWidth=8;jettyHeight=4;" parent="Fhr26TY9afIAGjRqi2eX-6" vertex="1">
          <mxGeometry x="1" width="20" height="20" relative="1" as="geometry">
            <mxPoint x="-27" y="7" as="offset" />
          </mxGeometry>
        </mxCell>
        <mxCell id="Xr6SCrK0ljmYc6vUD68w-10" value="" style="group;fontColor=#FFFFFF;" parent="ibalX00g9vt64yQpozJs-1" vertex="1" connectable="0">
          <mxGeometry x="-180" y="468.5" width="20" height="20" as="geometry" />
        </mxCell>
        <mxCell id="Xr6SCrK0ljmYc6vUD68w-11" value="" style="ellipse;whiteSpace=wrap;html=1;aspect=fixed;fillColor=#6a00ff;strokeColor=#3700CC;fontColor=#ffffff;" parent="Xr6SCrK0ljmYc6vUD68w-10" vertex="1">
          <mxGeometry width="20" height="20" as="geometry" />
        </mxCell>
        <mxCell id="Xr6SCrK0ljmYc6vUD68w-12" value="ka" style="text;html=1;align=center;verticalAlign=middle;whiteSpace=wrap;rounded=0;fontColor=#FFFFFF;" parent="Xr6SCrK0ljmYc6vUD68w-10" vertex="1">
          <mxGeometry width="20" height="20" as="geometry" />
        </mxCell>
        <mxCell id="Xr6SCrK0ljmYc6vUD68w-13" value="" style="group;fontColor=#FFFFFF;" parent="ibalX00g9vt64yQpozJs-1" vertex="1" connectable="0">
          <mxGeometry x="-120" y="357.5" width="20" height="20" as="geometry" />
        </mxCell>
        <mxCell id="Xr6SCrK0ljmYc6vUD68w-14" value="" style="ellipse;whiteSpace=wrap;html=1;aspect=fixed;fillColor=#6a00ff;strokeColor=#3700CC;fontColor=#ffffff;" parent="Xr6SCrK0ljmYc6vUD68w-13" vertex="1">
          <mxGeometry width="20" height="20" as="geometry" />
        </mxCell>
        <mxCell id="Xr6SCrK0ljmYc6vUD68w-15" value="ka" style="text;html=1;align=center;verticalAlign=middle;whiteSpace=wrap;rounded=0;fontColor=#FFFFFF;" parent="Xr6SCrK0ljmYc6vUD68w-13" vertex="1">
          <mxGeometry width="20" height="20" as="geometry" />
        </mxCell>
        <mxCell id="Xr6SCrK0ljmYc6vUD68w-16" style="edgeStyle=orthogonalEdgeStyle;rounded=0;orthogonalLoop=1;jettySize=auto;html=1;" parent="ibalX00g9vt64yQpozJs-1" source="Xr6SCrK0ljmYc6vUD68w-15" target="ibalX00g9vt64yQpozJs-21" edge="1">
          <mxGeometry relative="1" as="geometry" />
        </mxCell>
        <mxCell id="HCLQA8r3Dd-Hja26W3VV-4" value="" style="verticalLabelPosition=bottom;verticalAlign=top;html=1;shape=mxgraph.basic.star;fillColor=#f0a30a;fontColor=#000000;strokeColor=#BD7000;aspect=fixed;" parent="ibalX00g9vt64yQpozJs-1" vertex="1">
          <mxGeometry x="-1301" y="48" width="40" height="38" as="geometry" />
        </mxCell>
        <mxCell id="HCLQA8r3Dd-Hja26W3VV-5" value="Fuera del alcance" style="text;html=1;strokeColor=none;fillColor=none;align=left;verticalAlign=middle;whiteSpace=wrap;rounded=0;" parent="ibalX00g9vt64yQpozJs-1" vertex="1">
          <mxGeometry x="-1246" y="57" width="110" height="20" as="geometry" />
        </mxCell>
        <mxCell id="hjO6V6hpEGbDNPk5ZwKX-18" style="edgeStyle=orthogonalEdgeStyle;rounded=0;orthogonalLoop=1;jettySize=auto;html=1;exitX=0.5;exitY=1;exitDx=0;exitDy=0;" parent="ibalX00g9vt64yQpozJs-1" edge="1">
          <mxGeometry relative="1" as="geometry">
            <mxPoint x="232.5" y="1040" as="sourcePoint" />
            <mxPoint x="232.5" y="1040" as="targetPoint" />
          </mxGeometry>
        </mxCell>
        <mxCell id="tE9yIkzxRazClJXOlSwS-3" value="" style="rounded=0;whiteSpace=wrap;html=1;gradientDirection=east;fillColor=#bac8d3;opacity=20;strokeColor=#23445d;sketch=1;curveFitting=1;jiggle=2;shadow=0;glass=0;" parent="ibalX00g9vt64yQpozJs-1" vertex="1">
          <mxGeometry x="-660" y="38" width="560" height="60" as="geometry" />
        </mxCell>
        <mxCell id="tE9yIkzxRazClJXOlSwS-4" value="&lt;i&gt;device-reissuance&lt;/i&gt;" style="text;html=1;align=center;verticalAlign=middle;whiteSpace=wrap;rounded=0;fontFamily=Tahoma;fontSize=20;fontStyle=0;labelBackgroundColor=none;" parent="ibalX00g9vt64yQpozJs-1" vertex="1">
          <mxGeometry x="-660" y="53" width="560" height="30" as="geometry" />
        </mxCell>
        <mxCell id="tE9yIkzxRazClJXOlSwS-11" value="&lt;div style=&quot;text-align: left;&quot;&gt;&lt;span style=&quot;background-color: transparent; color: light-dark(rgb(0, 0, 0), rgb(255, 255, 255)); font-size: 12px; text-align: center;&quot;&gt;(GET)&amp;nbsp;&lt;/span&gt;&lt;span style=&quot;background-color: transparent; font-size: 12px;&quot;&gt;/v1/jwks&lt;/span&gt;&lt;/div&gt;" style="rounded=0;whiteSpace=wrap;html=1;align=left;fontSize=11;" parent="ibalX00g9vt64yQpozJs-1" vertex="1">
          <mxGeometry x="-1261" y="344" width="251" height="27" as="geometry" />
        </mxCell>
        <mxCell id="tE9yIkzxRazClJXOlSwS-12" value="6" style="rounded=0;whiteSpace=wrap;html=1;fillColor=#bac8d3;strokeColor=#23445d;fontStyle=1" parent="ibalX00g9vt64yQpozJs-1" vertex="1">
          <mxGeometry x="-1301" y="344" width="40" height="27" as="geometry" />
        </mxCell>
        <mxCell id="tE9yIkzxRazClJXOlSwS-17" value="&lt;font style=&quot;color: rgb(0, 0, 0);&quot;&gt;&lt;b style=&quot;font-size: 12px; text-align: center;&quot;&gt;request-&lt;/b&gt;&lt;b style=&quot;font-size: 12px; text-align: center;&quot;&gt;device-reissuance&lt;/b&gt;&lt;b style=&quot;font-size: 12px; text-align: center;&quot;&gt;-mpb2&lt;/b&gt;&lt;b style=&quot;font-size: 12px;&quot;&gt;-stream&lt;/b&gt;&lt;/font&gt;" style="rounded=0;whiteSpace=wrap;html=1;align=left;fontSize=11;" parent="ibalX00g9vt64yQpozJs-1" vertex="1">
          <mxGeometry x="130" y="481" width="260" height="20" as="geometry" />
        </mxCell>
        <mxCell id="tE9yIkzxRazClJXOlSwS-18" value="Input" style="rounded=0;whiteSpace=wrap;html=1;fillColor=#bac8d3;strokeColor=#23445d;fontStyle=1" parent="ibalX00g9vt64yQpozJs-1" vertex="1">
          <mxGeometry x="130" y="461" width="260" height="20" as="geometry" />
        </mxCell>
        <mxCell id="tE9yIkzxRazClJXOlSwS-19" value="&lt;font style=&quot;color: rgb(0, 0, 0);&quot;&gt;&lt;b style=&quot;font-size: 12px; text-align: center;&quot;&gt;response-&lt;/b&gt;&lt;b style=&quot;font-size: 12px; text-align: center;&quot;&gt;device-reissuance&lt;/b&gt;&lt;b style=&quot;font-size: 12px; text-align: center;&quot;&gt;-mpb2&lt;/b&gt;&lt;b style=&quot;font-size: 12px;&quot;&gt;-stream&lt;/b&gt;&lt;/font&gt;" style="rounded=0;whiteSpace=wrap;html=1;align=left;fontSize=11;" parent="ibalX00g9vt64yQpozJs-1" vertex="1">
          <mxGeometry x="390" y="481" width="270" height="20" as="geometry" />
        </mxCell>
        <mxCell id="tE9yIkzxRazClJXOlSwS-20" value="Output" style="rounded=0;whiteSpace=wrap;html=1;fillColor=#bac8d3;strokeColor=#23445d;fontStyle=1" parent="ibalX00g9vt64yQpozJs-1" vertex="1">
          <mxGeometry x="390" y="461" width="270" height="20" as="geometry" />
        </mxCell>
        <mxCell id="tE9yIkzxRazClJXOlSwS-21" value="Redis Groups" style="rounded=0;whiteSpace=wrap;html=1;fillColor=#bac8d3;strokeColor=#23445d;fontStyle=1" parent="ibalX00g9vt64yQpozJs-1" vertex="1">
          <mxGeometry x="130" y="441" width="530" height="20" as="geometry" />
        </mxCell>
        <mxCell id="uwjMrfqby6ekMZz9i17e-0" value="&lt;div&gt;«Microservicio»&lt;b&gt;&lt;br&gt;&lt;/b&gt;&lt;/div&gt;&lt;div&gt;&lt;b&gt;CardPlaceLocator&lt;/b&gt;&lt;/div&gt;" style="html=1;dropTarget=0;whiteSpace=wrap;fillColor=#fff2cc;strokeColor=#d6b656;" parent="ibalX00g9vt64yQpozJs-1" vertex="1">
          <mxGeometry x="-440" y="780" width="180" height="90" as="geometry" />
        </mxCell>
        <mxCell id="uwjMrfqby6ekMZz9i17e-1" value="" style="shape=module;jettyWidth=8;jettyHeight=4;" parent="uwjMrfqby6ekMZz9i17e-0" vertex="1">
          <mxGeometry x="1" width="20" height="20" relative="1" as="geometry">
            <mxPoint x="-27" y="7" as="offset" />
          </mxGeometry>
        </mxCell>
        <mxCell id="uwjMrfqby6ekMZz9i17e-3" value="&amp;lt;&amp;lt;Componente&amp;gt;&amp;gt;&lt;div&gt;CardPlaceLocatorLibrary&lt;/div&gt;" style="rounded=0;whiteSpace=wrap;html=1;fillColor=#fff2cc;strokeColor=#d6b656;" parent="ibalX00g9vt64yQpozJs-1" vertex="1">
          <mxGeometry x="-414" y="672.5" width="150" height="35" as="geometry" />
        </mxCell>
        <mxCell id="uwjMrfqby6ekMZz9i17e-46" style="rounded=0;orthogonalLoop=1;jettySize=auto;html=1;" parent="ibalX00g9vt64yQpozJs-1" source="WAyySOAWvUpvXSL9j0dH-2" target="WAyySOAWvUpvXSL9j0dH-0" edge="1">
          <mxGeometry relative="1" as="geometry">
            <mxPoint x="141" y="766" as="sourcePoint" />
            <mxPoint x="114" y="860" as="targetPoint" />
          </mxGeometry>
        </mxCell>
        <mxCell id="hMstRg2Ig_kQ_GUPlxNX-0" value="" style="rounded=0;whiteSpace=wrap;html=1;fillColor=#f8cecc;strokeColor=#b85450;" parent="ibalX00g9vt64yQpozJs-1" vertex="1">
          <mxGeometry x="-1306" y="159" width="50" height="20" as="geometry" />
        </mxCell>
        <mxCell id="hMstRg2Ig_kQ_GUPlxNX-1" value="Componente reutilizado con modificaciones" style="text;html=1;strokeColor=none;fillColor=none;align=left;verticalAlign=middle;whiteSpace=wrap;rounded=0;" parent="ibalX00g9vt64yQpozJs-1" vertex="1">
          <mxGeometry x="-1246" y="159" width="240" height="20" as="geometry" />
        </mxCell>
        <mxCell id="vuIAr291Dgmtw0vhvdgS-3" value="&lt;div&gt;«Service»&lt;b&gt;&lt;br&gt;&lt;/b&gt;&lt;/div&gt;&lt;div&gt;&lt;div style=&quot;&quot;&gt;&lt;b&gt;cadastral-domain-api&lt;/b&gt;&lt;br&gt;&lt;/div&gt;&lt;/div&gt;" style="html=1;dropTarget=0;whiteSpace=wrap;fillColor=#fff2cc;strokeColor=#d6b656;" parent="ibalX00g9vt64yQpozJs-1" vertex="1">
          <mxGeometry x="-975" y="324.5" width="180" height="90" as="geometry" />
        </mxCell>
        <mxCell id="vuIAr291Dgmtw0vhvdgS-4" value="" style="shape=module;jettyWidth=8;jettyHeight=4;" parent="vuIAr291Dgmtw0vhvdgS-3" vertex="1">
          <mxGeometry x="1" width="20" height="20" relative="1" as="geometry">
            <mxPoint x="-27" y="7" as="offset" />
          </mxGeometry>
        </mxCell>
        <mxCell id="vuIAr291Dgmtw0vhvdgS-44" value="&lt;div style=&quot;text-align: left;&quot;&gt;&lt;span style=&quot;background-color: transparent; color: light-dark(rgb(0, 0, 0), rgb(255, 255, 255)); font-size: 12px; text-align: center;&quot;&gt;(POST)&amp;nbsp;&lt;/span&gt;&lt;span style=&quot;background-color: transparent; font-size: 12px;&quot;&gt;/life-cycle/v3/devices/issue&lt;/span&gt;&lt;/div&gt;" style="rounded=0;whiteSpace=wrap;html=1;align=left;fontSize=11;" parent="ibalX00g9vt64yQpozJs-1" vertex="1">
          <mxGeometry x="-1261" y="457.5" width="251" height="27" as="geometry" />
        </mxCell>
        <mxCell id="vuIAr291Dgmtw0vhvdgS-45" value="5" style="rounded=0;whiteSpace=wrap;html=1;fillColor=#bac8d3;strokeColor=#23445d;fontStyle=1" parent="ibalX00g9vt64yQpozJs-1" vertex="1">
          <mxGeometry x="-1301" y="457.5" width="40" height="27" as="geometry" />
        </mxCell>
        <mxCell id="zCJj-YZPzNJQqVcJchUI-0" value="&lt;div style=&quot;text-align: left;&quot;&gt;&lt;span style=&quot;background-color: transparent; color: light-dark(rgb(0, 0, 0), rgb(255, 255, 255)); font-size: 12px; text-align: center;&quot;&gt;(GET)&amp;nbsp;&lt;/span&gt;&lt;span style=&quot;background-color: transparent; font-size: 12px;&quot;&gt;/v1/card-data&lt;/span&gt;&lt;/div&gt;" style="rounded=0;whiteSpace=wrap;html=1;align=left;fontSize=11;" parent="ibalX00g9vt64yQpozJs-1" vertex="1">
          <mxGeometry x="-1261" y="371" width="251" height="27" as="geometry" />
        </mxCell>
        <mxCell id="zCJj-YZPzNJQqVcJchUI-1" value="6" style="rounded=0;whiteSpace=wrap;html=1;fillColor=#bac8d3;strokeColor=#23445d;fontStyle=1" parent="ibalX00g9vt64yQpozJs-1" vertex="1">
          <mxGeometry x="-1301" y="371" width="40" height="27" as="geometry" />
        </mxCell>
        <mxCell id="Xb0hHfckAp4uWw7hpH98-0" value="&lt;div style=&quot;text-align: left;&quot;&gt;&lt;span style=&quot;color: light-dark(rgb(0, 0, 0), rgb(255, 255, 255)); background-color: transparent; font-size: 12px; text-align: center;&quot;&gt;(GET)&amp;nbsp;&lt;/span&gt;&lt;span style=&quot;background-color: transparent; font-size: 12px;&quot;&gt;/life-cycle/v4/devices/details&lt;/span&gt;&lt;br&gt;&lt;/div&gt;" style="rounded=0;whiteSpace=wrap;html=1;align=left;fontSize=11;" parent="ibalX00g9vt64yQpozJs-1" vertex="1">
          <mxGeometry x="-1261" y="484" width="251" height="27" as="geometry" />
        </mxCell>
        <mxCell id="Xb0hHfckAp4uWw7hpH98-1" value="5" style="rounded=0;whiteSpace=wrap;html=1;fillColor=#bac8d3;strokeColor=#23445d;fontStyle=1" parent="ibalX00g9vt64yQpozJs-1" vertex="1">
          <mxGeometry x="-1301" y="484" width="40" height="27" as="geometry" />
        </mxCell>
        <mxCell id="VW-zo31K4NacCxIiqQ6p-0" value="&amp;lt;&amp;lt;Componente&amp;gt;&amp;gt;&lt;div&gt;Multi-Redis-Factory&lt;/div&gt;" style="rounded=0;whiteSpace=wrap;html=1;fillColor=#fff2cc;strokeColor=#d6b656;" parent="ibalX00g9vt64yQpozJs-1" vertex="1">
          <mxGeometry x="-414" y="501" width="150" height="35" as="geometry" />
        </mxCell>
        <mxCell id="XT8RGr_UCAY49mzGf--c-0" value="&amp;lt;&amp;lt;Componente&amp;gt;&amp;gt;&lt;div&gt;kafka-message-logging&lt;br&gt;&lt;/div&gt;" style="rounded=0;whiteSpace=wrap;html=1;fillColor=#fff2cc;strokeColor=#d6b656;" parent="ibalX00g9vt64yQpozJs-1" vertex="1">
          <mxGeometry x="-414" y="461" width="150" height="35" as="geometry" />
        </mxCell>
        <mxCell id="XT8RGr_UCAY49mzGf--c-1" value="&amp;lt;&amp;lt;Componente&amp;gt;&amp;gt;&lt;div&gt;message-format&lt;br&gt;&lt;/div&gt;" style="rounded=0;whiteSpace=wrap;html=1;fillColor=#fff2cc;strokeColor=#d6b656;" parent="ibalX00g9vt64yQpozJs-1" vertex="1">
          <mxGeometry x="-414" y="422.5" width="150" height="35" as="geometry" />
        </mxCell>
      </root>
    </mxGraphModel>
  </diagram>
  <diagram id="P0uca078UgwhhpQkU-cd" name="Streams">
    <mxGraphModel dx="1707" dy="524" grid="1" gridSize="10" guides="1" tooltips="1" connect="1" arrows="1" fold="1" page="1" pageScale="1" pageWidth="827" pageHeight="1169" math="0" shadow="0">
      <root>
        <mxCell id="0" />
        <mxCell id="1" parent="0" />
        <mxCell id="4vSoQlsN3PBgfnXqHqy_-1" value="&lt;div&gt;«Microservicio»&lt;b&gt;&lt;br&gt;&lt;/b&gt;&lt;/div&gt;&lt;div&gt;&lt;b&gt;device-reissuance&lt;/b&gt;&lt;br&gt;&lt;/div&gt;" style="html=1;dropTarget=0;whiteSpace=wrap;fillColor=#d5e8d4;strokeColor=#82b366;" parent="1" vertex="1">
          <mxGeometry x="400" y="390" width="180" height="90" as="geometry" />
        </mxCell>
        <mxCell id="4vSoQlsN3PBgfnXqHqy_-2" value="" style="shape=module;jettyWidth=8;jettyHeight=4;" parent="4vSoQlsN3PBgfnXqHqy_-1" vertex="1">
          <mxGeometry x="1" width="20" height="20" relative="1" as="geometry">
            <mxPoint x="-27" y="7" as="offset" />
          </mxGeometry>
        </mxCell>
        <mxCell id="4vSoQlsN3PBgfnXqHqy_-3" value="&lt;div&gt;«Microservicio»&lt;b&gt;&lt;br&gt;&lt;/b&gt;&lt;/div&gt;&lt;div&gt;&lt;b&gt;Launcher&lt;/b&gt;&lt;/div&gt;" style="html=1;dropTarget=0;whiteSpace=wrap;" parent="1" vertex="1">
          <mxGeometry x="-220" y="390" width="180" height="90" as="geometry" />
        </mxCell>
        <mxCell id="4vSoQlsN3PBgfnXqHqy_-4" value="" style="shape=module;jettyWidth=8;jettyHeight=4;" parent="4vSoQlsN3PBgfnXqHqy_-3" vertex="1">
          <mxGeometry x="1" width="20" height="20" relative="1" as="geometry">
            <mxPoint x="-27" y="41" as="offset" />
          </mxGeometry>
        </mxCell>
        <mxCell id="4vSoQlsN3PBgfnXqHqy_-5" value="" style="rounded=0;whiteSpace=wrap;html=1;" parent="1" vertex="1">
          <mxGeometry x="10" y="330" width="340" height="170" as="geometry" />
        </mxCell>
        <mxCell id="4vSoQlsN3PBgfnXqHqy_-6" value="&lt;b&gt;request-&lt;/b&gt;&lt;b&gt;device-reissuance&lt;/b&gt;&lt;b&gt;-mpb2&lt;/b&gt;&lt;b style=&quot;text-align: left;&quot;&gt;-stream&lt;/b&gt;" style="shape=cylinder3;whiteSpace=wrap;html=1;boundedLbl=1;backgroundOutline=1;size=15;rotation=0;direction=south;fillColor=#e1d5e7;strokeColor=#9673a6;" parent="1" vertex="1">
          <mxGeometry x="30" y="397" width="300" height="30" as="geometry" />
        </mxCell>
        <mxCell id="4vSoQlsN3PBgfnXqHqy_-7" value="&lt;div style=&quot;text-align: left;&quot;&gt;&lt;b style=&quot;text-align: center;&quot;&gt;response-&lt;/b&gt;&lt;b style=&quot;text-align: center;&quot;&gt;device-reissuance&lt;/b&gt;&lt;b style=&quot;text-align: center;&quot;&gt;-mpb2&lt;/b&gt;&lt;b&gt;-stream&lt;/b&gt;&lt;br&gt;&lt;/div&gt;" style="shape=cylinder3;whiteSpace=wrap;html=1;boundedLbl=1;backgroundOutline=1;size=15;direction=south;fillColor=#f8cecc;strokeColor=#b85450;" parent="1" vertex="1">
          <mxGeometry x="30" y="443" width="300" height="30" as="geometry" />
        </mxCell>
        <mxCell id="BM0YD6f-yyeIX_410Jj9-1" value="&lt;div&gt;«Event component»&lt;b&gt;&lt;br&gt;&lt;/b&gt;&lt;/div&gt;&lt;div&gt;&lt;b&gt;Redis Streams&lt;/b&gt;&lt;/div&gt;" style="text;html=1;align=center;verticalAlign=middle;whiteSpace=wrap;rounded=0;" parent="1" vertex="1">
          <mxGeometry x="120" y="340" width="120" height="30" as="geometry" />
        </mxCell>
        <mxCell id="BM0YD6f-yyeIX_410Jj9-2" value="" style="endArrow=classic;html=1;rounded=0;entryX=0.5;entryY=1;entryDx=0;entryDy=0;entryPerimeter=0;exitX=1;exitY=0.25;exitDx=0;exitDy=0;" parent="1" source="4vSoQlsN3PBgfnXqHqy_-3" target="4vSoQlsN3PBgfnXqHqy_-6" edge="1">
          <mxGeometry width="50" height="50" relative="1" as="geometry">
            <mxPoint x="-40" y="435.5" as="sourcePoint" />
            <mxPoint x="60" y="384" as="targetPoint" />
          </mxGeometry>
        </mxCell>
        <mxCell id="BM0YD6f-yyeIX_410Jj9-3" value="" style="endArrow=classic;html=1;rounded=0;entryX=0;entryY=0.25;entryDx=0;entryDy=0;exitX=0.5;exitY=0;exitDx=0;exitDy=0;exitPerimeter=0;" parent="1" source="4vSoQlsN3PBgfnXqHqy_-6" target="4vSoQlsN3PBgfnXqHqy_-1" edge="1">
          <mxGeometry width="50" height="50" relative="1" as="geometry">
            <mxPoint x="260" y="384" as="sourcePoint" />
            <mxPoint x="260" y="454" as="targetPoint" />
          </mxGeometry>
        </mxCell>
        <mxCell id="BM0YD6f-yyeIX_410Jj9-4" value="" style="endArrow=classic;html=1;rounded=0;exitX=0;exitY=0.75;exitDx=0;exitDy=0;entryX=0.5;entryY=0;entryDx=0;entryDy=0;entryPerimeter=0;" parent="1" source="4vSoQlsN3PBgfnXqHqy_-1" target="4vSoQlsN3PBgfnXqHqy_-7" edge="1">
          <mxGeometry width="50" height="50" relative="1" as="geometry">
            <mxPoint x="10" y="434" as="sourcePoint" />
            <mxPoint x="60" y="384" as="targetPoint" />
          </mxGeometry>
        </mxCell>
        <mxCell id="BM0YD6f-yyeIX_410Jj9-5" value="" style="endArrow=classic;html=1;rounded=0;exitX=0.5;exitY=1;exitDx=0;exitDy=0;exitPerimeter=0;entryX=1;entryY=0.75;entryDx=0;entryDy=0;" parent="1" source="4vSoQlsN3PBgfnXqHqy_-7" target="4vSoQlsN3PBgfnXqHqy_-3" edge="1">
          <mxGeometry width="50" height="50" relative="1" as="geometry">
            <mxPoint x="310" y="457" as="sourcePoint" />
            <mxPoint x="-40" y="458" as="targetPoint" />
          </mxGeometry>
        </mxCell>
      </root>
    </mxGraphModel>
  </diagram>
  <diagram name="Clases device-reissuance" id="H1mp5dD5IItkxUQxP-CH">
    <mxGraphModel dx="2200" dy="2410" grid="1" gridSize="10" guides="1" tooltips="1" connect="1" arrows="1" fold="1" page="1" pageScale="1" pageWidth="850" pageHeight="1100" math="0" shadow="0">
      <root>
        <mxCell id="uwC5ymK-V9znXdQjigwV-0" />
        <mxCell id="uwC5ymK-V9znXdQjigwV-1" parent="uwC5ymK-V9znXdQjigwV-0" />
        <mxCell id="uwC5ymK-V9znXdQjigwV-2" value="com.mx.santander.plard.acl.microservice" style="shape=folder;fontStyle=1;spacingTop=10;tabWidth=40;tabHeight=14;tabPosition=left;html=1;whiteSpace=wrap;align=left;verticalAlign=top;" parent="uwC5ymK-V9znXdQjigwV-1" vertex="1">
          <mxGeometry x="350" y="-10" width="1990" height="1870" as="geometry" />
        </mxCell>
        <mxCell id="uwC5ymK-V9znXdQjigwV-3" value="infraestructure" style="shape=folder;fontStyle=1;spacingTop=10;tabWidth=40;tabHeight=14;tabPosition=left;html=1;whiteSpace=wrap;align=left;verticalAlign=top;" parent="uwC5ymK-V9znXdQjigwV-1" vertex="1">
          <mxGeometry x="580" y="1157.5" width="1740" height="672.5" as="geometry" />
        </mxCell>
        <mxCell id="uwC5ymK-V9znXdQjigwV-4" value="domain" style="shape=folder;fontStyle=1;spacingTop=10;tabWidth=40;tabHeight=14;tabPosition=left;html=1;whiteSpace=wrap;align=left;verticalAlign=top;" parent="uwC5ymK-V9znXdQjigwV-1" vertex="1">
          <mxGeometry x="1300" y="690" width="1020" height="430" as="geometry" />
        </mxCell>
        <mxCell id="uwC5ymK-V9znXdQjigwV-5" value="Outbound" style="shape=folder;fontStyle=1;spacingTop=10;tabWidth=40;tabHeight=14;tabPosition=left;html=1;whiteSpace=wrap;align=left;verticalAlign=top;" parent="uwC5ymK-V9znXdQjigwV-1" vertex="1">
          <mxGeometry x="1320" y="882.75" width="960" height="207.25" as="geometry" />
        </mxCell>
        <mxCell id="uwC5ymK-V9znXdQjigwV-6" value="application" style="shape=folder;fontStyle=1;spacingTop=10;tabWidth=40;tabHeight=14;tabPosition=left;html=1;whiteSpace=wrap;align=left;verticalAlign=top;" parent="uwC5ymK-V9znXdQjigwV-1" vertex="1">
          <mxGeometry x="370" y="720" width="890" height="310" as="geometry" />
        </mxCell>
        <mxCell id="uwC5ymK-V9znXdQjigwV-7" value="Service" style="shape=folder;fontStyle=1;spacingTop=10;tabWidth=40;tabHeight=14;tabPosition=left;html=1;whiteSpace=wrap;align=left;verticalAlign=top;" parent="uwC5ymK-V9znXdQjigwV-1" vertex="1">
          <mxGeometry x="650" y="780" width="590" height="230" as="geometry" />
        </mxCell>
        <mxCell id="uwC5ymK-V9znXdQjigwV-8" value="model" style="shape=folder;fontStyle=1;spacingTop=10;tabWidth=40;tabHeight=14;tabPosition=left;html=1;whiteSpace=wrap;align=left;verticalAlign=top;" parent="uwC5ymK-V9znXdQjigwV-1" vertex="1">
          <mxGeometry x="610" y="1691.5" width="1690" height="120" as="geometry" />
        </mxCell>
        <mxCell id="uwC5ymK-V9znXdQjigwV-9" value="transform" style="shape=folder;fontStyle=1;spacingTop=10;tabWidth=40;tabHeight=14;tabPosition=left;html=1;whiteSpace=wrap;align=left;verticalAlign=top;" parent="uwC5ymK-V9znXdQjigwV-1" vertex="1">
          <mxGeometry x="610" y="1449" width="1690" height="242.5" as="geometry" />
        </mxCell>
        <mxCell id="uwC5ymK-V9znXdQjigwV-10" value="events" style="shape=folder;fontStyle=1;spacingTop=10;tabWidth=40;tabHeight=14;tabPosition=left;html=1;whiteSpace=wrap;align=left;verticalAlign=top;" parent="uwC5ymK-V9znXdQjigwV-1" vertex="1">
          <mxGeometry x="1849" y="1218.5" width="420" height="150" as="geometry" />
        </mxCell>
        <mxCell id="uwC5ymK-V9znXdQjigwV-11" value="interface" style="shape=folder;fontStyle=1;spacingTop=10;tabWidth=40;tabHeight=14;tabPosition=left;html=1;whiteSpace=wrap;align=left;verticalAlign=top;" parent="uwC5ymK-V9znXdQjigwV-1" vertex="1">
          <mxGeometry x="370" y="30" width="940" height="590" as="geometry" />
        </mxCell>
        <mxCell id="uwC5ymK-V9znXdQjigwV-12" value="model" style="shape=folder;fontStyle=1;spacingTop=10;tabWidth=40;tabHeight=14;tabPosition=left;html=1;whiteSpace=wrap;align=left;verticalAlign=top;" parent="uwC5ymK-V9znXdQjigwV-1" vertex="1">
          <mxGeometry x="810" y="70" width="480" height="116" as="geometry" />
        </mxCell>
        <mxCell id="uwC5ymK-V9znXdQjigwV-13" value="transform" style="shape=folder;fontStyle=1;spacingTop=10;tabWidth=40;tabHeight=14;tabPosition=left;html=1;whiteSpace=wrap;align=left;verticalAlign=top;" parent="uwC5ymK-V9znXdQjigwV-1" vertex="1">
          <mxGeometry x="810" y="210" width="480" height="200" as="geometry" />
        </mxCell>
        <mxCell id="uwC5ymK-V9znXdQjigwV-14" value="events" style="shape=folder;fontStyle=1;spacingTop=10;tabWidth=40;tabHeight=14;tabPosition=left;html=1;whiteSpace=wrap;align=left;verticalAlign=top;" parent="uwC5ymK-V9znXdQjigwV-1" vertex="1">
          <mxGeometry x="810.5" y="430" width="479" height="170" as="geometry" />
        </mxCell>
        <mxCell id="uwC5ymK-V9znXdQjigwV-15" value="Model" style="shape=folder;fontStyle=1;spacingTop=10;tabWidth=40;tabHeight=14;tabPosition=left;html=1;whiteSpace=wrap;align=left;verticalAlign=top;" parent="uwC5ymK-V9znXdQjigwV-1" vertex="1">
          <mxGeometry x="1320" y="741.5" width="210" height="118.5" as="geometry" />
        </mxCell>
        <mxCell id="uwC5ymK-V9znXdQjigwV-16" value="DevicesDataModelDto" style="swimlane;fontStyle=1;align=center;verticalAlign=middle;childLayout=stackLayout;horizontal=1;startSize=29;horizontalStack=0;resizeParent=1;resizeParentMax=0;resizeLast=0;collapsible=0;marginBottom=0;html=1;whiteSpace=wrap;fillColor=#f5f5f5;fontColor=#333333;strokeColor=#666666;" parent="uwC5ymK-V9znXdQjigwV-1" vertex="1">
          <mxGeometry x="909" y="115.5" width="180" height="54" as="geometry" />
        </mxCell>
        <mxCell id="uwC5ymK-V9znXdQjigwV-17" value="&amp;lt;&amp;lt;Java Bean&amp;gt;&amp;gt;" style="text;html=1;align=center;verticalAlign=middle;spacingLeft=4;spacingRight=4;overflow=hidden;rotatable=0;points=[[0,0.5],[1,0.5]];portConstraint=eastwest;whiteSpace=wrap;" parent="uwC5ymK-V9znXdQjigwV-16" vertex="1">
          <mxGeometry y="29" width="180" height="25" as="geometry" />
        </mxCell>
        <mxCell id="uwC5ymK-V9znXdQjigwV-18" value="DevicesDataModelDto" style="swimlane;fontStyle=1;align=center;verticalAlign=middle;childLayout=stackLayout;horizontal=1;startSize=29;horizontalStack=0;resizeParent=1;resizeParentMax=0;resizeLast=0;collapsible=0;marginBottom=0;html=1;whiteSpace=wrap;fillColor=#f5f5f5;fontColor=#333333;strokeColor=#666666;" parent="uwC5ymK-V9znXdQjigwV-1" vertex="1">
          <mxGeometry x="1340" y="790" width="150" height="54" as="geometry" />
        </mxCell>
        <mxCell id="uwC5ymK-V9znXdQjigwV-19" value="&amp;lt;&amp;lt;Java Bean&amp;gt;&amp;gt;" style="text;html=1;align=center;verticalAlign=middle;spacingLeft=4;spacingRight=4;overflow=hidden;rotatable=0;points=[[0,0.5],[1,0.5]];portConstraint=eastwest;whiteSpace=wrap;" parent="uwC5ymK-V9znXdQjigwV-18" vertex="1">
          <mxGeometry y="29" width="150" height="25" as="geometry" />
        </mxCell>
        <mxCell id="uwC5ymK-V9znXdQjigwV-21" value="&lt;b style=&quot;border-color: var(--border-color);&quot;&gt;EventKafkaPublisher&lt;/b&gt;" style="swimlane;fontStyle=1;align=center;verticalAlign=middle;childLayout=stackLayout;horizontal=1;startSize=29;horizontalStack=0;resizeParent=1;resizeParentMax=0;resizeLast=0;collapsible=0;marginBottom=0;html=1;whiteSpace=wrap;fillColor=#f5f5f5;fontColor=#333333;strokeColor=#666666;" parent="uwC5ymK-V9znXdQjigwV-1" vertex="1">
          <mxGeometry x="2075" y="1278.75" width="150" height="54" as="geometry" />
        </mxCell>
        <mxCell id="uwC5ymK-V9znXdQjigwV-22" value="&amp;lt;&amp;lt;Java Component&amp;gt;&amp;gt;" style="text;html=1;align=center;verticalAlign=middle;spacingLeft=4;spacingRight=4;overflow=hidden;rotatable=0;points=[[0,0.5],[1,0.5]];portConstraint=eastwest;whiteSpace=wrap;" parent="uwC5ymK-V9znXdQjigwV-21" vertex="1">
          <mxGeometry y="29" width="150" height="25" as="geometry" />
        </mxCell>
        <mxCell id="uwC5ymK-V9znXdQjigwV-23" value="&amp;lt;&amp;lt;Component&amp;gt;&amp;gt;&lt;br&gt;&lt;b&gt;MessageTranslatorIn&lt;/b&gt;" style="swimlane;fontStyle=0;align=center;verticalAlign=top;childLayout=stackLayout;horizontal=1;startSize=55;horizontalStack=0;resizeParent=1;resizeParentMax=0;resizeLast=0;collapsible=0;marginBottom=0;html=1;whiteSpace=wrap;fillColor=#f5f5f5;fontColor=#333333;strokeColor=#666666;" parent="uwC5ymK-V9znXdQjigwV-1" vertex="1">
          <mxGeometry x="825.5" y="260" width="340" height="120" as="geometry" />
        </mxCell>
        <mxCell id="uwC5ymK-V9znXdQjigwV-24" value="" style="line;strokeWidth=1;align=left;verticalAlign=middle;spacingTop=-1;spacingLeft=3;spacingRight=3;rotatable=0;labelPosition=right;points=[];portConstraint=eastwest;" parent="uwC5ymK-V9znXdQjigwV-23" vertex="1">
          <mxGeometry y="55" width="340" height="8" as="geometry" />
        </mxCell>
        <mxCell id="uwC5ymK-V9znXdQjigwV-25" value="operations" style="text;html=1;align=center;verticalAlign=middle;spacingLeft=4;spacingRight=4;overflow=hidden;rotatable=0;points=[[0,0.5],[1,0.5]];portConstraint=eastwest;whiteSpace=wrap;" parent="uwC5ymK-V9znXdQjigwV-23" vertex="1">
          <mxGeometry y="63" width="340" height="20" as="geometry" />
        </mxCell>
        <mxCell id="uwC5ymK-V9znXdQjigwV-26" value="&lt;div&gt;&lt;b&gt;&lt;font style=&quot;color: rgb(0, 0, 204);&quot;&gt;requestMpb2ToDeviceData(String): DevicesDataModelDto&lt;/font&gt;&lt;/b&gt;&lt;/div&gt;" style="text;html=1;align=left;verticalAlign=middle;spacingLeft=4;spacingRight=4;overflow=hidden;rotatable=0;points=[[0,0.5],[1,0.5]];portConstraint=eastwest;whiteSpace=wrap;" parent="uwC5ymK-V9znXdQjigwV-23" vertex="1">
          <mxGeometry y="83" width="340" height="37" as="geometry" />
        </mxCell>
        <mxCell id="uwC5ymK-V9znXdQjigwV-27" value="Use" style="endArrow=open;endSize=12;dashed=1;html=1;rounded=0;" parent="uwC5ymK-V9znXdQjigwV-1" source="uwC5ymK-V9znXdQjigwV-44" target="uwC5ymK-V9znXdQjigwV-23" edge="1">
          <mxGeometry width="160" relative="1" as="geometry">
            <mxPoint x="839" y="473" as="sourcePoint" />
            <mxPoint x="792.8767123287671" y="398.5" as="targetPoint" />
          </mxGeometry>
        </mxCell>
        <mxCell id="uwC5ymK-V9znXdQjigwV-28" value="Use" style="endArrow=open;endSize=12;dashed=1;html=1;rounded=0;edgeStyle=orthogonalEdgeStyle;exitX=0;exitY=0;exitDx=260;exitDy=14;exitPerimeter=0;" parent="uwC5ymK-V9znXdQjigwV-1" source="uwC5ymK-V9znXdQjigwV-7" target="uwC5ymK-V9znXdQjigwV-44" edge="1">
          <mxGeometry width="160" relative="1" as="geometry">
            <mxPoint x="1022" y="500" as="sourcePoint" />
            <mxPoint x="1094.3224299065419" y="593" as="targetPoint" />
          </mxGeometry>
        </mxCell>
        <mxCell id="uwC5ymK-V9znXdQjigwV-29" value="&amp;lt;&amp;lt;Component&amp;gt;&amp;gt;&lt;br&gt;&lt;b&gt;EventMessageTranslator&lt;/b&gt;" style="swimlane;fontStyle=0;align=center;verticalAlign=top;childLayout=stackLayout;horizontal=1;startSize=55;horizontalStack=0;resizeParent=1;resizeParentMax=0;resizeLast=0;collapsible=0;marginBottom=0;html=1;whiteSpace=wrap;fillColor=#f5f5f5;fontColor=#333333;strokeColor=#666666;" parent="uwC5ymK-V9znXdQjigwV-1" vertex="1">
          <mxGeometry x="2085" y="1489" width="200" height="120" as="geometry" />
        </mxCell>
        <mxCell id="uwC5ymK-V9znXdQjigwV-30" value="" style="line;strokeWidth=1;align=left;verticalAlign=middle;spacingTop=-1;spacingLeft=3;spacingRight=3;rotatable=0;labelPosition=right;points=[];portConstraint=eastwest;" parent="uwC5ymK-V9znXdQjigwV-29" vertex="1">
          <mxGeometry y="55" width="200" height="8" as="geometry" />
        </mxCell>
        <mxCell id="uwC5ymK-V9znXdQjigwV-31" value="operations" style="text;html=1;align=center;verticalAlign=middle;spacingLeft=4;spacingRight=4;overflow=hidden;rotatable=0;points=[[0,0.5],[1,0.5]];portConstraint=eastwest;whiteSpace=wrap;" parent="uwC5ymK-V9znXdQjigwV-29" vertex="1">
          <mxGeometry y="63" width="200" height="20" as="geometry" />
        </mxCell>
        <mxCell id="uwC5ymK-V9znXdQjigwV-32" value="&lt;div&gt;auditoriaToEvent(DevicesDataModel): string&lt;br&gt;&lt;/div&gt;" style="text;html=1;align=left;verticalAlign=middle;spacingLeft=4;spacingRight=4;overflow=hidden;rotatable=0;points=[[0,0.5],[1,0.5]];portConstraint=eastwest;whiteSpace=wrap;" parent="uwC5ymK-V9znXdQjigwV-29" vertex="1">
          <mxGeometry y="83" width="200" height="37" as="geometry" />
        </mxCell>
        <mxCell id="uwC5ymK-V9znXdQjigwV-33" value="Use" style="endArrow=open;endSize=12;dashed=1;html=1;rounded=0;" parent="uwC5ymK-V9znXdQjigwV-1" source="uwC5ymK-V9znXdQjigwV-21" target="uwC5ymK-V9znXdQjigwV-29" edge="1">
          <mxGeometry width="160" relative="1" as="geometry">
            <mxPoint x="1479" y="1068.5" as="sourcePoint" />
            <mxPoint x="2050" y="1292.5" as="targetPoint" />
          </mxGeometry>
        </mxCell>
        <mxCell id="uwC5ymK-V9znXdQjigwV-34" value="&amp;lt;&amp;lt;Interface&amp;gt;&amp;gt;&lt;br&gt;&lt;b&gt;I&lt;/b&gt;&lt;b style=&quot;border-color: var(--border-color);&quot;&gt;EventKafkaPublisher&lt;/b&gt;" style="swimlane;fontStyle=0;align=center;verticalAlign=top;childLayout=stackLayout;horizontal=1;startSize=55;horizontalStack=0;resizeParent=1;resizeParentMax=0;resizeLast=0;collapsible=0;marginBottom=0;html=1;whiteSpace=wrap;fillColor=#f5f5f5;fontColor=#333333;strokeColor=#666666;" parent="uwC5ymK-V9znXdQjigwV-1" vertex="1">
          <mxGeometry x="2085" y="925" width="180" height="120" as="geometry" />
        </mxCell>
        <mxCell id="uwC5ymK-V9znXdQjigwV-35" value="" style="line;strokeWidth=1;align=left;verticalAlign=middle;spacingTop=-1;spacingLeft=3;spacingRight=3;rotatable=0;labelPosition=right;points=[];portConstraint=eastwest;" parent="uwC5ymK-V9znXdQjigwV-34" vertex="1">
          <mxGeometry y="55" width="180" height="8" as="geometry" />
        </mxCell>
        <mxCell id="uwC5ymK-V9znXdQjigwV-36" value="operations" style="text;html=1;align=center;verticalAlign=middle;spacingLeft=4;spacingRight=4;overflow=hidden;rotatable=0;points=[[0,0.5],[1,0.5]];portConstraint=eastwest;whiteSpace=wrap;" parent="uwC5ymK-V9znXdQjigwV-34" vertex="1">
          <mxGeometry y="63" width="180" height="20" as="geometry" />
        </mxCell>
        <mxCell id="uwC5ymK-V9znXdQjigwV-37" value="sendAudit(DevicesDataModel)" style="text;html=1;align=left;verticalAlign=middle;spacingLeft=4;spacingRight=4;overflow=hidden;rotatable=0;points=[[0,0.5],[1,0.5]];portConstraint=eastwest;whiteSpace=wrap;" parent="uwC5ymK-V9znXdQjigwV-34" vertex="1">
          <mxGeometry y="83" width="180" height="37" as="geometry" />
        </mxCell>
        <mxCell id="uwC5ymK-V9znXdQjigwV-38" value="" style="endArrow=block;startArrow=none;endFill=0;startFill=0;endSize=8;html=1;verticalAlign=bottom;dashed=1;labelBackgroundColor=none;rounded=0;jumpStyle=arc;" parent="uwC5ymK-V9znXdQjigwV-1" source="uwC5ymK-V9znXdQjigwV-21" target="uwC5ymK-V9znXdQjigwV-34" edge="1">
          <mxGeometry width="160" relative="1" as="geometry">
            <mxPoint x="2044" y="1122" as="sourcePoint" />
            <mxPoint x="2204" y="1122" as="targetPoint" />
          </mxGeometry>
        </mxCell>
        <mxCell id="uwC5ymK-V9znXdQjigwV-39" value="" style="endArrow=open;endSize=12;dashed=1;html=1;rounded=0;exitX=0.5;exitY=0;exitDx=0;exitDy=0;" parent="uwC5ymK-V9znXdQjigwV-1" source="uwC5ymK-V9znXdQjigwV-23" target="uwC5ymK-V9znXdQjigwV-16" edge="1">
          <mxGeometry width="160" relative="1" as="geometry">
            <mxPoint x="751" y="483" as="sourcePoint" />
            <mxPoint x="748" y="390" as="targetPoint" />
          </mxGeometry>
        </mxCell>
        <mxCell id="uwC5ymK-V9znXdQjigwV-40" value="AuditoriaDto" style="swimlane;fontStyle=1;align=center;verticalAlign=middle;childLayout=stackLayout;horizontal=1;startSize=29;horizontalStack=0;resizeParent=1;resizeParentMax=0;resizeLast=0;collapsible=0;marginBottom=0;html=1;whiteSpace=wrap;fillColor=#f5f5f5;fontColor=#333333;strokeColor=#666666;" parent="uwC5ymK-V9znXdQjigwV-1" vertex="1">
          <mxGeometry x="2099" y="1738" width="170" height="54" as="geometry" />
        </mxCell>
        <mxCell id="uwC5ymK-V9znXdQjigwV-41" value="&amp;lt;&amp;lt;Java Bean&amp;gt;&amp;gt;" style="text;html=1;align=center;verticalAlign=middle;spacingLeft=4;spacingRight=4;overflow=hidden;rotatable=0;points=[[0,0.5],[1,0.5]];portConstraint=eastwest;whiteSpace=wrap;" parent="uwC5ymK-V9znXdQjigwV-40" vertex="1">
          <mxGeometry y="29" width="170" height="25" as="geometry" />
        </mxCell>
        <mxCell id="uwC5ymK-V9znXdQjigwV-42" value="" style="endArrow=open;endSize=12;dashed=1;html=1;rounded=0;" parent="uwC5ymK-V9znXdQjigwV-1" source="uwC5ymK-V9znXdQjigwV-29" target="uwC5ymK-V9znXdQjigwV-40" edge="1">
          <mxGeometry width="160" relative="1" as="geometry">
            <mxPoint x="1907" y="1787.5" as="sourcePoint" />
            <mxPoint x="1923" y="1701.5" as="targetPoint" />
          </mxGeometry>
        </mxCell>
        <mxCell id="uwC5ymK-V9znXdQjigwV-43" style="edgeStyle=orthogonalEdgeStyle;rounded=0;orthogonalLoop=1;jettySize=auto;html=1;entryX=0;entryY=0.5;entryDx=0;entryDy=0;dashed=1;endArrow=block;endFill=0;" parent="uwC5ymK-V9znXdQjigwV-1" source="uwC5ymK-V9znXdQjigwV-44" target="uwC5ymK-V9znXdQjigwV-87" edge="1">
          <mxGeometry relative="1" as="geometry" />
        </mxCell>
        <mxCell id="uwC5ymK-V9znXdQjigwV-44" value="RedisStreamSubscriberMpb2" style="swimlane;fontStyle=1;align=center;verticalAlign=middle;childLayout=stackLayout;horizontal=1;startSize=29;horizontalStack=0;resizeParent=1;resizeParentMax=0;resizeLast=0;collapsible=0;marginBottom=0;html=1;whiteSpace=wrap;fillColor=#f5f5f5;fontColor=#333333;strokeColor=#666666;" parent="uwC5ymK-V9znXdQjigwV-1" vertex="1">
          <mxGeometry x="825.5" y="494" width="174" height="54" as="geometry" />
        </mxCell>
        <mxCell id="uwC5ymK-V9znXdQjigwV-45" value="&amp;lt;&amp;lt;Java Component&amp;gt;&amp;gt;" style="text;html=1;align=center;verticalAlign=middle;spacingLeft=4;spacingRight=4;overflow=hidden;rotatable=0;points=[[0,0.5],[1,0.5]];portConstraint=eastwest;whiteSpace=wrap;" parent="uwC5ymK-V9znXdQjigwV-44" vertex="1">
          <mxGeometry y="29" width="174" height="25" as="geometry" />
        </mxCell>
        <mxCell id="uwC5ymK-V9znXdQjigwV-46" value="rest" style="shape=folder;fontStyle=1;spacingTop=10;tabWidth=40;tabHeight=14;tabPosition=left;html=1;whiteSpace=wrap;align=left;verticalAlign=top;" parent="uwC5ymK-V9znXdQjigwV-1" vertex="1">
          <mxGeometry x="610" y="1218.5" width="1040" height="181.5" as="geometry" />
        </mxCell>
        <mxCell id="uwC5ymK-V9znXdQjigwV-64" value="1" style="ellipse;whiteSpace=wrap;html=1;aspect=fixed;" parent="uwC5ymK-V9znXdQjigwV-1" vertex="1">
          <mxGeometry x="2190" y="1380" width="20" height="20" as="geometry" />
        </mxCell>
        <mxCell id="uwC5ymK-V9znXdQjigwV-65" value="Use" style="endArrow=open;endSize=12;dashed=1;html=1;rounded=0;" parent="uwC5ymK-V9znXdQjigwV-1" source="uwC5ymK-V9znXdQjigwV-64" target="uwC5ymK-V9znXdQjigwV-21" edge="1">
          <mxGeometry width="160" relative="1" as="geometry">
            <mxPoint x="2070" y="1390" as="sourcePoint" />
            <mxPoint x="2070" y="1343" as="targetPoint" />
          </mxGeometry>
        </mxCell>
        <mxCell id="uwC5ymK-V9znXdQjigwV-66" value="config" style="shape=folder;fontStyle=1;spacingTop=10;tabWidth=40;tabHeight=14;tabPosition=left;html=1;whiteSpace=wrap;align=left;verticalAlign=top;" parent="uwC5ymK-V9znXdQjigwV-1" vertex="1">
          <mxGeometry x="394.25" y="780" width="230" height="230" as="geometry" />
        </mxCell>
        <mxCell id="uwC5ymK-V9znXdQjigwV-67" value="RedisConfig" style="swimlane;fontStyle=1;align=center;verticalAlign=middle;childLayout=stackLayout;horizontal=1;startSize=29;horizontalStack=0;resizeParent=1;resizeParentMax=0;resizeLast=0;collapsible=0;marginBottom=0;html=1;whiteSpace=wrap;fillColor=#f5f5f5;fontColor=#333333;strokeColor=#666666;" parent="uwC5ymK-V9znXdQjigwV-1" vertex="1">
          <mxGeometry x="424.25" y="835.25" width="180" height="54" as="geometry" />
        </mxCell>
        <mxCell id="uwC5ymK-V9znXdQjigwV-68" value="&amp;lt;&amp;lt;Java Component&amp;gt;&amp;gt;" style="text;html=1;align=center;verticalAlign=middle;spacingLeft=4;spacingRight=4;overflow=hidden;rotatable=0;points=[[0,0.5],[1,0.5]];portConstraint=eastwest;whiteSpace=wrap;" parent="uwC5ymK-V9znXdQjigwV-67" vertex="1">
          <mxGeometry y="29" width="180" height="25" as="geometry" />
        </mxCell>
        <mxCell id="uwC5ymK-V9znXdQjigwV-69" value="FeignConfig" style="swimlane;fontStyle=1;align=center;verticalAlign=middle;childLayout=stackLayout;horizontal=1;startSize=29;horizontalStack=0;resizeParent=1;resizeParentMax=0;resizeLast=0;collapsible=0;marginBottom=0;html=1;whiteSpace=wrap;fillColor=#f5f5f5;fontColor=#333333;strokeColor=#666666;" parent="uwC5ymK-V9znXdQjigwV-1" vertex="1">
          <mxGeometry x="424.25" y="919.5" width="180" height="54" as="geometry" />
        </mxCell>
        <mxCell id="uwC5ymK-V9znXdQjigwV-70" value="&amp;lt;&amp;lt;Java Component&amp;gt;&amp;gt;" style="text;html=1;align=center;verticalAlign=middle;spacingLeft=4;spacingRight=4;overflow=hidden;rotatable=0;points=[[0,0.5],[1,0.5]];portConstraint=eastwest;whiteSpace=wrap;" parent="uwC5ymK-V9znXdQjigwV-69" vertex="1">
          <mxGeometry y="29" width="180" height="25" as="geometry" />
        </mxCell>
        <mxCell id="uwC5ymK-V9znXdQjigwV-71" value="Use" style="endArrow=open;endSize=12;dashed=1;html=1;rounded=0;exitX=0.5;exitY=1;exitDx=0;exitDy=0;exitPerimeter=0;edgeStyle=orthogonalEdgeStyle;" parent="uwC5ymK-V9znXdQjigwV-1" source="uwC5ymK-V9znXdQjigwV-7" target="uwC5ymK-V9znXdQjigwV-72" edge="1">
          <mxGeometry width="160" relative="1" as="geometry">
            <mxPoint x="990" y="947" as="sourcePoint" />
            <mxPoint x="680" y="1123" as="targetPoint" />
          </mxGeometry>
        </mxCell>
        <mxCell id="uwC5ymK-V9znXdQjigwV-72" value="1" style="ellipse;whiteSpace=wrap;html=1;aspect=fixed;" parent="uwC5ymK-V9znXdQjigwV-1" vertex="1">
          <mxGeometry x="1040" y="1137.5" width="20" height="20" as="geometry" />
        </mxCell>
        <mxCell id="uwC5ymK-V9znXdQjigwV-73" value="&amp;lt;&amp;lt;Interface&amp;gt;&amp;gt;&lt;br&gt;&lt;b style=&quot;border-color: var(--border-color);&quot;&gt;IRedisStream&lt;/b&gt;&lt;span style=&quot;font-weight: 700;&quot;&gt;Publisher&lt;/span&gt;" style="swimlane;fontStyle=0;align=center;verticalAlign=top;childLayout=stackLayout;horizontal=1;startSize=55;horizontalStack=0;resizeParent=1;resizeParentMax=0;resizeLast=0;collapsible=0;marginBottom=0;html=1;whiteSpace=wrap;fillColor=#f5f5f5;fontColor=#333333;strokeColor=#666666;" parent="uwC5ymK-V9znXdQjigwV-1" vertex="1">
          <mxGeometry x="1880" y="925" width="190" height="120" as="geometry" />
        </mxCell>
        <mxCell id="uwC5ymK-V9znXdQjigwV-74" value="" style="line;strokeWidth=1;align=left;verticalAlign=middle;spacingTop=-1;spacingLeft=3;spacingRight=3;rotatable=0;labelPosition=right;points=[];portConstraint=eastwest;" parent="uwC5ymK-V9znXdQjigwV-73" vertex="1">
          <mxGeometry y="55" width="190" height="8" as="geometry" />
        </mxCell>
        <mxCell id="uwC5ymK-V9znXdQjigwV-75" value="operations" style="text;html=1;align=center;verticalAlign=middle;spacingLeft=4;spacingRight=4;overflow=hidden;rotatable=0;points=[[0,0.5],[1,0.5]];portConstraint=eastwest;whiteSpace=wrap;" parent="uwC5ymK-V9znXdQjigwV-73" vertex="1">
          <mxGeometry y="63" width="190" height="20" as="geometry" />
        </mxCell>
        <mxCell id="uwC5ymK-V9znXdQjigwV-76" value="&lt;div&gt;&lt;b&gt;&lt;font style=&quot;color: rgb(0, 0, 204);&quot;&gt;addMpb2(DevicesDataModel)&lt;/font&gt;&lt;/b&gt;&lt;/div&gt;" style="text;html=1;align=left;verticalAlign=middle;spacingLeft=4;spacingRight=4;overflow=hidden;rotatable=0;points=[[0,0.5],[1,0.5]];portConstraint=eastwest;whiteSpace=wrap;" parent="uwC5ymK-V9znXdQjigwV-73" vertex="1">
          <mxGeometry y="83" width="190" height="37" as="geometry" />
        </mxCell>
        <mxCell id="uwC5ymK-V9znXdQjigwV-77" value="RedisStreamPublisher" style="swimlane;fontStyle=1;align=center;verticalAlign=middle;childLayout=stackLayout;horizontal=1;startSize=29;horizontalStack=0;resizeParent=1;resizeParentMax=0;resizeLast=0;collapsible=0;marginBottom=0;html=1;whiteSpace=wrap;fillColor=#f5f5f5;fontColor=#333333;strokeColor=#666666;" parent="uwC5ymK-V9znXdQjigwV-1" vertex="1">
          <mxGeometry x="1863" y="1278.75" width="150" height="54" as="geometry" />
        </mxCell>
        <mxCell id="uwC5ymK-V9znXdQjigwV-78" value="&amp;lt;&amp;lt;Java Component&amp;gt;&amp;gt;" style="text;html=1;align=center;verticalAlign=middle;spacingLeft=4;spacingRight=4;overflow=hidden;rotatable=0;points=[[0,0.5],[1,0.5]];portConstraint=eastwest;whiteSpace=wrap;" parent="uwC5ymK-V9znXdQjigwV-77" vertex="1">
          <mxGeometry y="29" width="150" height="25" as="geometry" />
        </mxCell>
        <mxCell id="uwC5ymK-V9znXdQjigwV-79" value="Use" style="endArrow=open;endSize=12;dashed=1;html=1;rounded=0;entryX=0.5;entryY=0;entryDx=0;entryDy=0;" parent="uwC5ymK-V9znXdQjigwV-1" source="uwC5ymK-V9znXdQjigwV-77" target="uwC5ymK-V9znXdQjigwV-83" edge="1">
          <mxGeometry width="160" relative="1" as="geometry">
            <mxPoint x="1170" y="1028.5" as="sourcePoint" />
            <mxPoint x="2056" y="1458" as="targetPoint" />
            <Array as="points" />
          </mxGeometry>
        </mxCell>
        <mxCell id="uwC5ymK-V9znXdQjigwV-80" value="" style="endArrow=block;startArrow=none;endFill=0;startFill=0;endSize=8;html=1;verticalAlign=bottom;dashed=1;labelBackgroundColor=none;rounded=0;jumpStyle=arc;jumpSize=12;" parent="uwC5ymK-V9znXdQjigwV-1" source="uwC5ymK-V9znXdQjigwV-77" target="uwC5ymK-V9znXdQjigwV-76" edge="1">
          <mxGeometry width="160" relative="1" as="geometry">
            <mxPoint x="1949" y="1176" as="sourcePoint" />
            <mxPoint x="2699" y="885" as="targetPoint" />
          </mxGeometry>
        </mxCell>
        <mxCell id="uwC5ymK-V9znXdQjigwV-81" value="1" style="ellipse;whiteSpace=wrap;html=1;aspect=fixed;" parent="uwC5ymK-V9znXdQjigwV-1" vertex="1">
          <mxGeometry x="1970" y="1380" width="20" height="20" as="geometry" />
        </mxCell>
        <mxCell id="uwC5ymK-V9znXdQjigwV-82" value="Use" style="endArrow=open;endSize=12;dashed=1;html=1;rounded=0;" parent="uwC5ymK-V9znXdQjigwV-1" source="uwC5ymK-V9znXdQjigwV-81" target="uwC5ymK-V9znXdQjigwV-77" edge="1">
          <mxGeometry width="160" relative="1" as="geometry">
            <mxPoint x="1694" y="1390" as="sourcePoint" />
            <mxPoint x="1694" y="1342" as="targetPoint" />
          </mxGeometry>
        </mxCell>
        <mxCell id="uwC5ymK-V9znXdQjigwV-83" value="&amp;lt;&amp;lt;Component&amp;gt;&amp;gt;&lt;br&gt;&lt;b&gt;MessageTranslatorOut&lt;/b&gt;" style="swimlane;fontStyle=0;align=center;verticalAlign=top;childLayout=stackLayout;horizontal=1;startSize=55;horizontalStack=0;resizeParent=1;resizeParentMax=0;resizeLast=0;collapsible=0;marginBottom=0;html=1;whiteSpace=wrap;fillColor=#f5f5f5;fontColor=#333333;strokeColor=#666666;" parent="uwC5ymK-V9znXdQjigwV-1" vertex="1">
          <mxGeometry x="1803" y="1489" width="270" height="153" as="geometry" />
        </mxCell>
        <mxCell id="uwC5ymK-V9znXdQjigwV-84" value="" style="line;strokeWidth=1;align=left;verticalAlign=middle;spacingTop=-1;spacingLeft=3;spacingRight=3;rotatable=0;labelPosition=right;points=[];portConstraint=eastwest;" parent="uwC5ymK-V9znXdQjigwV-83" vertex="1">
          <mxGeometry y="55" width="270" height="8" as="geometry" />
        </mxCell>
        <mxCell id="uwC5ymK-V9znXdQjigwV-85" value="operations" style="text;html=1;align=center;verticalAlign=middle;spacingLeft=4;spacingRight=4;overflow=hidden;rotatable=0;points=[[0,0.5],[1,0.5]];portConstraint=eastwest;whiteSpace=wrap;" parent="uwC5ymK-V9znXdQjigwV-83" vertex="1">
          <mxGeometry y="63" width="270" height="20" as="geometry" />
        </mxCell>
        <mxCell id="uwC5ymK-V9znXdQjigwV-86" value="&lt;div&gt;&lt;b style=&quot;background-color: initial; color: light-dark(rgb(0, 0, 0), rgb(255, 255, 255));&quot;&gt;&lt;font style=&quot;color: rgb(0, 0, 204);&quot;&gt;+sendRespMessageMpb2(DevicesDataModel): messagePS7&lt;/font&gt;&lt;/b&gt;&lt;br&gt;&lt;/div&gt;" style="text;html=1;align=left;verticalAlign=middle;spacingLeft=4;spacingRight=4;overflow=hidden;rotatable=0;points=[[0,0.5],[1,0.5]];portConstraint=eastwest;whiteSpace=wrap;" parent="uwC5ymK-V9znXdQjigwV-83" vertex="1">
          <mxGeometry y="83" width="270" height="70" as="geometry" />
        </mxCell>
        <mxCell id="uwC5ymK-V9znXdQjigwV-87" value="&amp;lt;&amp;lt;Interface&amp;gt;&amp;gt;&lt;br&gt;&lt;b style=&quot;border-color: var(--border-color);&quot;&gt;I&lt;/b&gt;&lt;span style=&quot;font-weight: 700;&quot;&gt;RedisStreamSubscriberMpb2&lt;/span&gt;" style="swimlane;fontStyle=0;align=center;verticalAlign=top;childLayout=stackLayout;horizontal=1;startSize=55;horizontalStack=0;resizeParent=1;resizeParentMax=0;resizeLast=0;collapsible=0;marginBottom=0;html=1;whiteSpace=wrap;fillColor=#f5f5f5;fontColor=#333333;strokeColor=#666666;" parent="uwC5ymK-V9znXdQjigwV-1" vertex="1">
          <mxGeometry x="1031.5" y="471" width="240" height="100" as="geometry" />
        </mxCell>
        <mxCell id="uwC5ymK-V9znXdQjigwV-88" value="" style="line;strokeWidth=1;align=left;verticalAlign=middle;spacingTop=-1;spacingLeft=3;spacingRight=3;rotatable=0;labelPosition=right;points=[];portConstraint=eastwest;" parent="uwC5ymK-V9znXdQjigwV-87" vertex="1">
          <mxGeometry y="55" width="240" height="8" as="geometry" />
        </mxCell>
        <mxCell id="uwC5ymK-V9znXdQjigwV-89" value="operations" style="text;html=1;align=center;verticalAlign=middle;spacingLeft=4;spacingRight=4;overflow=hidden;rotatable=0;points=[[0,0.5],[1,0.5]];portConstraint=eastwest;whiteSpace=wrap;" parent="uwC5ymK-V9znXdQjigwV-87" vertex="1">
          <mxGeometry y="63" width="240" height="20" as="geometry" />
        </mxCell>
        <mxCell id="uwC5ymK-V9znXdQjigwV-90" value="onMessage()&lt;div&gt;&lt;div&gt;&lt;br&gt;&lt;/div&gt;&lt;/div&gt;" style="text;html=1;align=left;verticalAlign=middle;spacingLeft=4;spacingRight=4;overflow=hidden;rotatable=0;points=[[0,0.5],[1,0.5]];portConstraint=eastwest;whiteSpace=wrap;" parent="uwC5ymK-V9znXdQjigwV-87" vertex="1">
          <mxGeometry y="83" width="240" height="17" as="geometry" />
        </mxCell>
        <mxCell id="uwC5ymK-V9znXdQjigwV-91" style="edgeStyle=orthogonalEdgeStyle;rounded=0;orthogonalLoop=1;jettySize=auto;html=1;entryX=0;entryY=0.5;entryDx=0;entryDy=0;dashed=1;endArrow=block;endFill=0;dashPattern=8 8;" parent="uwC5ymK-V9znXdQjigwV-1" edge="1">
          <mxGeometry relative="1" as="geometry">
            <mxPoint x="1110" y="986" as="targetPoint" />
          </mxGeometry>
        </mxCell>
        <mxCell id="uwC5ymK-V9znXdQjigwV-109" value="&amp;lt;&amp;lt;Interface&amp;gt;&amp;gt;&lt;br&gt;&lt;b style=&quot;border-color: var(--border-color);&quot;&gt;I&lt;/b&gt;&lt;b style=&quot;border-color: var(--border-color);&quot;&gt;&lt;b style=&quot;border-color: var(--border-color);&quot;&gt;ReissuanceMpb2Mq&lt;/b&gt;UseCaseService&lt;br&gt;&lt;/b&gt;" style="swimlane;fontStyle=0;align=center;verticalAlign=top;childLayout=stackLayout;horizontal=1;startSize=55;horizontalStack=0;resizeParent=1;resizeParentMax=0;resizeLast=0;collapsible=0;marginBottom=0;html=1;whiteSpace=wrap;fillColor=#f5f5f5;fontColor=#333333;strokeColor=#666666;" parent="uwC5ymK-V9znXdQjigwV-1" vertex="1">
          <mxGeometry x="939" y="815" width="290" height="110" as="geometry" />
        </mxCell>
        <mxCell id="uwC5ymK-V9znXdQjigwV-110" value="" style="line;strokeWidth=1;align=left;verticalAlign=middle;spacingTop=-1;spacingLeft=3;spacingRight=3;rotatable=0;labelPosition=right;points=[];portConstraint=eastwest;" parent="uwC5ymK-V9znXdQjigwV-109" vertex="1">
          <mxGeometry y="55" width="290" height="8" as="geometry" />
        </mxCell>
        <mxCell id="uwC5ymK-V9znXdQjigwV-111" value="operations" style="text;html=1;align=center;verticalAlign=middle;spacingLeft=4;spacingRight=4;overflow=hidden;rotatable=0;points=[[0,0.5],[1,0.5]];portConstraint=eastwest;whiteSpace=wrap;" parent="uwC5ymK-V9znXdQjigwV-109" vertex="1">
          <mxGeometry y="63" width="290" height="20" as="geometry" />
        </mxCell>
        <mxCell id="uwC5ymK-V9znXdQjigwV-112" value="&lt;b&gt;&lt;font style=&quot;color: rgb(0, 0, 204);&quot;&gt;+reissuanceDeviceMpb2(DevicesDataModelDto)&lt;/font&gt;&lt;/b&gt;" style="text;html=1;align=left;verticalAlign=middle;spacingLeft=4;spacingRight=4;overflow=hidden;rotatable=0;points=[[0,0.5],[1,0.5]];portConstraint=eastwest;whiteSpace=wrap;" parent="uwC5ymK-V9znXdQjigwV-109" vertex="1">
          <mxGeometry y="83" width="290" height="27" as="geometry" />
        </mxCell>
        <mxCell id="uwC5ymK-V9znXdQjigwV-113" value="&lt;b style=&quot;border-color: var(--border-color);&quot;&gt;ReissuanceMpb2MqUseCaseService&lt;/b&gt;" style="swimlane;fontStyle=1;align=center;verticalAlign=middle;childLayout=stackLayout;horizontal=1;startSize=29;horizontalStack=0;resizeParent=1;resizeParentMax=0;resizeLast=0;collapsible=0;marginBottom=0;html=1;whiteSpace=wrap;fillColor=#f5f5f5;fontColor=#333333;strokeColor=#666666;" parent="uwC5ymK-V9znXdQjigwV-1" vertex="1">
          <mxGeometry x="677" y="835.25" width="220" height="54" as="geometry" />
        </mxCell>
        <mxCell id="uwC5ymK-V9znXdQjigwV-114" value="&amp;lt;&amp;lt;Java Component&amp;gt;&amp;gt;" style="text;html=1;align=center;verticalAlign=middle;spacingLeft=4;spacingRight=4;overflow=hidden;rotatable=0;points=[[0,0.5],[1,0.5]];portConstraint=eastwest;whiteSpace=wrap;" parent="uwC5ymK-V9znXdQjigwV-113" vertex="1">
          <mxGeometry y="29" width="220" height="25" as="geometry" />
        </mxCell>
        <mxCell id="uwC5ymK-V9znXdQjigwV-115" value="" style="endArrow=block;startArrow=none;endFill=0;startFill=0;endSize=8;html=1;verticalAlign=bottom;dashed=1;labelBackgroundColor=none;rounded=0;" parent="uwC5ymK-V9znXdQjigwV-1" source="uwC5ymK-V9znXdQjigwV-113" target="uwC5ymK-V9znXdQjigwV-109" edge="1">
          <mxGeometry width="160" relative="1" as="geometry">
            <mxPoint x="1060" y="985" as="sourcePoint" />
            <mxPoint x="1220" y="985" as="targetPoint" />
          </mxGeometry>
        </mxCell>
        <mxCell id="uwC5ymK-V9znXdQjigwV-116" value="&amp;lt;&amp;lt;Interface&amp;gt;&amp;gt;&lt;br&gt;&lt;b&gt;I&lt;/b&gt;&lt;span data-teams=&quot;true&quot;&gt;&lt;strong&gt;DeviceLifeCycleClient&lt;/strong&gt;&lt;/span&gt;" style="swimlane;fontStyle=0;align=center;verticalAlign=top;childLayout=stackLayout;horizontal=1;startSize=55;horizontalStack=0;resizeParent=1;resizeParentMax=0;resizeLast=0;collapsible=0;marginBottom=0;html=1;whiteSpace=wrap;fillColor=#f5f5f5;fontColor=#333333;strokeColor=#666666;" parent="uwC5ymK-V9znXdQjigwV-1" vertex="1">
          <mxGeometry x="1581" y="925" width="280" height="150" as="geometry" />
        </mxCell>
        <mxCell id="uwC5ymK-V9znXdQjigwV-117" value="" style="line;strokeWidth=1;align=left;verticalAlign=middle;spacingTop=-1;spacingLeft=3;spacingRight=3;rotatable=0;labelPosition=right;points=[];portConstraint=eastwest;" parent="uwC5ymK-V9znXdQjigwV-116" vertex="1">
          <mxGeometry y="55" width="280" height="8" as="geometry" />
        </mxCell>
        <mxCell id="uwC5ymK-V9znXdQjigwV-118" value="operations" style="text;html=1;align=center;verticalAlign=middle;spacingLeft=4;spacingRight=4;overflow=hidden;rotatable=0;points=[[0,0.5],[1,0.5]];portConstraint=eastwest;whiteSpace=wrap;" parent="uwC5ymK-V9znXdQjigwV-116" vertex="1">
          <mxGeometry y="63" width="280" height="20" as="geometry" />
        </mxCell>
        <mxCell id="uwC5ymK-V9znXdQjigwV-119" value="&lt;b&gt;&lt;font style=&quot;color: rgb(0, 0, 204);&quot;&gt;+getDevicesDetails(String deviceId):&amp;nbsp;&lt;/font&gt;&lt;/b&gt;&lt;div&gt;&lt;b&gt;&lt;font style=&quot;color: rgb(0, 0, 204);&quot;&gt;&lt;span style=&quot;text-align: center;&quot;&gt;DevicesDataModelDto&lt;/span&gt;&amp;nbsp;&lt;/font&gt;&lt;/b&gt;&lt;b style=&quot;background-color: transparent; color: light-dark(rgb(0, 0, 0), rgb(255, 255, 255));&quot;&gt;&lt;font style=&quot;color: rgb(0, 0, 204);&quot;&gt;[MPB2]&lt;/font&gt;&lt;/b&gt;&lt;/div&gt;&lt;div&gt;&lt;b style=&quot;background-color: transparent; color: light-dark(rgb(0, 0, 0), rgb(255, 255, 255));&quot;&gt;&lt;font style=&quot;color: rgb(0, 0, 204);&quot;&gt;+setDevicesIssue(String deviceId): DevicesDataModelDto [MPB2]&lt;/font&gt;&lt;/b&gt;&lt;/div&gt;" style="text;html=1;align=left;verticalAlign=middle;spacingLeft=4;spacingRight=4;overflow=hidden;rotatable=0;points=[[0,0.5],[1,0.5]];portConstraint=eastwest;whiteSpace=wrap;" parent="uwC5ymK-V9znXdQjigwV-116" vertex="1">
          <mxGeometry y="83" width="280" height="67" as="geometry" />
        </mxCell>
        <mxCell id="uwC5ymK-V9znXdQjigwV-120" value="&lt;span style=&quot;color: rgb(51, 51, 51); font-weight: 400;&quot; data-teams=&quot;true&quot;&gt;&lt;strong&gt;DeviceLifeCycleClient&lt;/strong&gt;&lt;/span&gt;" style="swimlane;fontStyle=1;align=center;verticalAlign=middle;childLayout=stackLayout;horizontal=1;startSize=29;horizontalStack=0;resizeParent=1;resizeParentMax=0;resizeLast=0;collapsible=0;marginBottom=0;html=1;whiteSpace=wrap;fillColor=#f5f5f5;fontColor=#333333;strokeColor=#666666;" parent="uwC5ymK-V9znXdQjigwV-1" vertex="1">
          <mxGeometry x="1440" y="1282.25" width="150" height="54" as="geometry" />
        </mxCell>
        <mxCell id="uwC5ymK-V9znXdQjigwV-121" value="&amp;lt;&amp;lt;API Client&amp;gt;&amp;gt;" style="text;html=1;align=center;verticalAlign=middle;spacingLeft=4;spacingRight=4;overflow=hidden;rotatable=0;points=[[0,0.5],[1,0.5]];portConstraint=eastwest;whiteSpace=wrap;" parent="uwC5ymK-V9znXdQjigwV-120" vertex="1">
          <mxGeometry y="29" width="150" height="25" as="geometry" />
        </mxCell>
        <mxCell id="uwC5ymK-V9znXdQjigwV-122" value="" style="endArrow=block;startArrow=none;endFill=0;startFill=0;endSize=8;html=1;verticalAlign=bottom;dashed=1;labelBackgroundColor=none;rounded=0;jumpStyle=arc;jumpSize=12;" parent="uwC5ymK-V9znXdQjigwV-1" source="uwC5ymK-V9znXdQjigwV-120" target="uwC5ymK-V9znXdQjigwV-116" edge="1">
          <mxGeometry width="160" relative="1" as="geometry">
            <mxPoint x="1631" y="1288" as="sourcePoint" />
            <mxPoint x="1950" y="805" as="targetPoint" />
          </mxGeometry>
        </mxCell>
        <mxCell id="uwC5ymK-V9znXdQjigwV-123" value="&amp;lt;&amp;lt;Component&amp;gt;&amp;gt;&lt;br&gt;&lt;strong style=&quot;color: rgb(51, 51, 51);&quot;&gt;DeviceLifeCycleTranslator&lt;/strong&gt;" style="swimlane;fontStyle=0;align=center;verticalAlign=top;childLayout=stackLayout;horizontal=1;startSize=55;horizontalStack=0;resizeParent=1;resizeParentMax=0;resizeLast=0;collapsible=0;marginBottom=0;html=1;whiteSpace=wrap;fillColor=#f5f5f5;fontColor=#333333;strokeColor=#666666;" parent="uwC5ymK-V9znXdQjigwV-1" vertex="1">
          <mxGeometry x="939" y="1489" width="710" height="190" as="geometry" />
        </mxCell>
        <mxCell id="uwC5ymK-V9znXdQjigwV-124" value="" style="line;strokeWidth=1;align=left;verticalAlign=middle;spacingTop=-1;spacingLeft=3;spacingRight=3;rotatable=0;labelPosition=right;points=[];portConstraint=eastwest;" parent="uwC5ymK-V9znXdQjigwV-123" vertex="1">
          <mxGeometry y="55" width="710" height="8" as="geometry" />
        </mxCell>
        <mxCell id="uwC5ymK-V9znXdQjigwV-125" value="operations" style="text;html=1;align=center;verticalAlign=middle;spacingLeft=4;spacingRight=4;overflow=hidden;rotatable=0;points=[[0,0.5],[1,0.5]];portConstraint=eastwest;whiteSpace=wrap;" parent="uwC5ymK-V9znXdQjigwV-123" vertex="1">
          <mxGeometry y="63" width="710" height="20" as="geometry" />
        </mxCell>
        <mxCell id="uwC5ymK-V9znXdQjigwV-126" value="&lt;font style=&quot;color: rgb(0, 0, 204);&quot;&gt;&lt;b style=&quot;&quot;&gt;+getDeviceDetailedLast4DigitsCardResponse(GetDeviceDetailedLast4DigitsCardResponseDto response):&amp;nbsp;&lt;/b&gt;&lt;/font&gt;&lt;div&gt;&lt;span style=&quot;text-align: center;&quot;&gt;&lt;font style=&quot;color: rgb(0, 0, 204);&quot;&gt;&lt;b style=&quot;&quot;&gt;DevicesDataModelDto&lt;/b&gt;&lt;br&gt;&lt;div style=&quot;text-align: left;&quot;&gt;&lt;span style=&quot;font-weight: normal; background-color: transparent;&quot;&gt;&lt;font&gt;&lt;b&gt;+g&lt;/b&gt;&lt;/font&gt;&lt;/span&gt;&lt;span style=&quot;font-weight: normal; background-color: transparent; text-align: left;&quot;&gt;&lt;font&gt;&lt;b&gt;etConsultDetailedListDevicesResponse(&lt;/b&gt;&lt;/font&gt;&lt;/span&gt;&lt;span style=&quot;background-color: transparent;&quot;&gt;&lt;font&gt;&lt;b&gt;GetConsultDetailedListDevicesResponseDto response):&amp;nbsp;&lt;/b&gt;&lt;/font&gt;&lt;/span&gt;&lt;b style=&quot;background-color: transparent; text-align: center;&quot;&gt;DevicesDataModelDto&lt;/b&gt;&lt;/div&gt;&lt;/font&gt;&lt;/span&gt;&lt;span style=&quot;text-align: center;&quot;&gt;&lt;font&gt;&lt;div style=&quot;text-align: left;&quot;&gt;&lt;font style=&quot;color: rgb(0, 0, 204);&quot;&gt;&lt;b style=&quot;background-color: transparent;&quot;&gt;&lt;span style=&quot;background-color: transparent; font-weight: normal;&quot;&gt;&lt;font&gt;&lt;b&gt;+g&lt;/b&gt;&lt;/font&gt;&lt;/span&gt;&lt;span style=&quot;background-color: transparent; font-weight: normal;&quot;&gt;&lt;font&gt;&lt;b&gt;et&lt;/b&gt;&lt;/font&gt;&lt;/span&gt;&lt;span style=&quot;background-color: transparent; text-align: center;&quot;&gt;&lt;font&gt;ReissuePhysicalDeviceRequest&lt;/font&gt;&lt;/span&gt;&lt;span style=&quot;background-color: transparent; font-weight: normal;&quot;&gt;&lt;font&gt;&lt;b&gt;(&lt;/b&gt;&lt;/font&gt;&lt;/span&gt;&lt;span style=&quot;background-color: transparent; font-weight: normal;&quot;&gt;&lt;b&gt;DeviceDataModelDato):&amp;nbsp;&lt;/b&gt;&lt;/span&gt;&lt;/b&gt;&lt;span style=&quot;background-color: transparent; font-weight: 700; text-align: center;&quot;&gt;&lt;font&gt;ReissuePhysicalDeviceRequest&lt;/font&gt;&lt;/span&gt;&lt;span style=&quot;background-color: transparent; font-weight: 700;&quot;&gt;&lt;font&gt;Dto&lt;/font&gt;&lt;/span&gt;&lt;/font&gt;&lt;/div&gt;&lt;div style=&quot;text-align: left;&quot;&gt;&lt;b style=&quot;background-color: transparent;&quot;&gt;&lt;font style=&quot;color: rgb(0, 0, 204);&quot;&gt;&lt;span style=&quot;background-color: transparent; font-weight: normal;&quot;&gt;&lt;font&gt;&lt;b&gt;+g&lt;/b&gt;&lt;/font&gt;&lt;/span&gt;&lt;span style=&quot;background-color: transparent; font-weight: normal;&quot;&gt;&lt;b&gt;et&lt;/b&gt;&lt;/span&gt;&lt;span style=&quot;background-color: transparent; text-align: center;&quot;&gt;ReissuePhysicalDeviceResponse&lt;/span&gt;&lt;span style=&quot;background-color: transparent; font-weight: normal;&quot;&gt;&lt;b&gt;(&lt;/b&gt;&lt;/span&gt;&lt;span style=&quot;text-align: center;&quot;&gt;ReissuePhysicalDeviceSuccessResponseDto response&lt;/span&gt;&lt;span style=&quot;background-color: transparent; font-weight: normal;&quot;&gt;&lt;b&gt;):&amp;nbsp;&lt;/b&gt;&lt;/span&gt;&lt;/font&gt;&lt;/b&gt;&lt;span style=&quot;background-color: transparent; font-weight: 700;&quot;&gt;&lt;font&gt;&lt;span style=&quot;text-align: center; background-color: transparent;&quot;&gt;&lt;font style=&quot;color: rgb(0, 0, 204);&quot;&gt;ReissuePhysicalDeviceSuccessResponseDto&lt;/font&gt;&lt;/span&gt;&lt;br&gt;&lt;/font&gt;&lt;/span&gt;&lt;/div&gt;&lt;/font&gt;&lt;/span&gt;&lt;/div&gt;" style="text;html=1;align=left;verticalAlign=middle;spacingLeft=4;spacingRight=4;overflow=hidden;rotatable=0;points=[[0,0.5],[1,0.5]];portConstraint=eastwest;whiteSpace=wrap;" parent="uwC5ymK-V9znXdQjigwV-123" vertex="1">
          <mxGeometry y="83" width="710" height="107" as="geometry" />
        </mxCell>
        <mxCell id="uwC5ymK-V9znXdQjigwV-127" value="&lt;div style=&quot;text-align: left;&quot;&gt;&lt;span style=&quot;background-color: transparent; text-align: center;&quot;&gt;&lt;font color=&quot;#000000&quot;&gt;GetDeviceDetailedLast4DigitsCardResponse&lt;/font&gt;&lt;/span&gt;&lt;span style=&quot;background-color: transparent;&quot;&gt;&lt;font style=&quot;color: rgb(0, 0, 0);&quot;&gt;Dto&lt;/font&gt;&lt;/span&gt;&lt;/div&gt;" style="swimlane;fontStyle=1;align=center;verticalAlign=middle;childLayout=stackLayout;horizontal=1;startSize=29;horizontalStack=0;resizeParent=1;resizeParentMax=0;resizeLast=0;collapsible=0;marginBottom=0;html=1;whiteSpace=wrap;fillColor=#f5f5f5;fontColor=#333333;strokeColor=#666666;" parent="uwC5ymK-V9znXdQjigwV-1" vertex="1">
          <mxGeometry x="940.5" y="1739" width="288.5" height="53" as="geometry" />
        </mxCell>
        <mxCell id="uwC5ymK-V9znXdQjigwV-128" value="&amp;lt;&amp;lt;Java Bean&amp;gt;&amp;gt;" style="text;html=1;align=center;verticalAlign=middle;spacingLeft=4;spacingRight=4;overflow=hidden;rotatable=0;points=[[0,0.5],[1,0.5]];portConstraint=eastwest;whiteSpace=wrap;" parent="uwC5ymK-V9znXdQjigwV-127" vertex="1">
          <mxGeometry y="29" width="288.5" height="24" as="geometry" />
        </mxCell>
        <mxCell id="uwC5ymK-V9znXdQjigwV-130" value="Use" style="endArrow=open;endSize=12;dashed=1;html=1;rounded=0;" parent="uwC5ymK-V9znXdQjigwV-1" source="uwC5ymK-V9znXdQjigwV-120" target="uwC5ymK-V9znXdQjigwV-123" edge="1">
          <mxGeometry width="160" relative="1" as="geometry">
            <mxPoint x="917" y="1341" as="sourcePoint" />
            <mxPoint x="754" y="1460" as="targetPoint" />
          </mxGeometry>
        </mxCell>
        <mxCell id="uwC5ymK-V9znXdQjigwV-131" value="1" style="ellipse;whiteSpace=wrap;html=1;aspect=fixed;" parent="uwC5ymK-V9znXdQjigwV-1" vertex="1">
          <mxGeometry x="1505" y="1380" width="20" height="20" as="geometry" />
        </mxCell>
        <mxCell id="uwC5ymK-V9znXdQjigwV-132" value="Use" style="endArrow=open;endSize=12;dashed=1;html=1;rounded=0;exitX=0.5;exitY=0;exitDx=0;exitDy=0;" parent="uwC5ymK-V9znXdQjigwV-1" source="uwC5ymK-V9znXdQjigwV-131" target="uwC5ymK-V9znXdQjigwV-120" edge="1">
          <mxGeometry width="160" relative="1" as="geometry">
            <mxPoint x="1201" y="1400" as="sourcePoint" />
            <mxPoint x="1202" y="1341" as="targetPoint" />
          </mxGeometry>
        </mxCell>
        <mxCell id="mZZ4piZvKpgbZrroLsrH-0" value="" style="endArrow=open;endSize=12;dashed=1;html=1;rounded=0;" parent="uwC5ymK-V9znXdQjigwV-1" source="uwC5ymK-V9znXdQjigwV-126" target="uwC5ymK-V9znXdQjigwV-127" edge="1">
          <mxGeometry width="160" relative="1" as="geometry">
            <mxPoint x="780" y="1639.5" as="sourcePoint" />
            <mxPoint x="794" y="1749.5" as="targetPoint" />
          </mxGeometry>
        </mxCell>
        <mxCell id="mZZ4piZvKpgbZrroLsrH-1" value="&amp;lt;&amp;lt;Interface&amp;gt;&amp;gt;&lt;br&gt;&lt;b&gt;I&lt;/b&gt;&lt;span data-teams=&quot;true&quot;&gt;&lt;strong&gt;CadastralDomainAPIClient&lt;/strong&gt;&lt;/span&gt;" style="swimlane;fontStyle=0;align=center;verticalAlign=top;childLayout=stackLayout;horizontal=1;startSize=55;horizontalStack=0;resizeParent=1;resizeParentMax=0;resizeLast=0;collapsible=0;marginBottom=0;html=1;whiteSpace=wrap;fillColor=#f5f5f5;fontColor=#333333;strokeColor=#666666;" parent="uwC5ymK-V9znXdQjigwV-1" vertex="1">
          <mxGeometry x="1340" y="925" width="230" height="130" as="geometry" />
        </mxCell>
        <mxCell id="mZZ4piZvKpgbZrroLsrH-2" value="" style="line;strokeWidth=1;align=left;verticalAlign=middle;spacingTop=-1;spacingLeft=3;spacingRight=3;rotatable=0;labelPosition=right;points=[];portConstraint=eastwest;" parent="mZZ4piZvKpgbZrroLsrH-1" vertex="1">
          <mxGeometry y="55" width="230" height="8" as="geometry" />
        </mxCell>
        <mxCell id="mZZ4piZvKpgbZrroLsrH-3" value="operations" style="text;html=1;align=center;verticalAlign=middle;spacingLeft=4;spacingRight=4;overflow=hidden;rotatable=0;points=[[0,0.5],[1,0.5]];portConstraint=eastwest;whiteSpace=wrap;" parent="mZZ4piZvKpgbZrroLsrH-1" vertex="1">
          <mxGeometry y="63" width="230" height="20" as="geometry" />
        </mxCell>
        <mxCell id="mZZ4piZvKpgbZrroLsrH-4" value="&lt;b&gt;&lt;font style=&quot;color: rgb(0, 0, 204);&quot;&gt;+getJwks():&amp;nbsp;&lt;/font&gt;&lt;/b&gt;&lt;b style=&quot;background-color: transparent; color: light-dark(rgb(0, 0, 0), rgb(255, 255, 255));&quot;&gt;&lt;font style=&quot;color: rgb(0, 0, 204);&quot;&gt;&lt;span style=&quot;text-align: center;&quot;&gt;DevicesDataModelDto&lt;/span&gt;&lt;/font&gt;&lt;/b&gt;&lt;div&gt;&lt;b style=&quot;background-color: transparent; color: light-dark(rgb(0, 0, 0), rgb(255, 255, 255));&quot;&gt;&lt;font style=&quot;color: rgb(0, 0, 204);&quot;&gt;&lt;span style=&quot;text-align: center;&quot;&gt;+getCardData(String deviceId): DevicesDataModelDto&lt;/span&gt;&lt;/font&gt;&lt;/b&gt;&lt;/div&gt;" style="text;html=1;align=left;verticalAlign=middle;spacingLeft=4;spacingRight=4;overflow=hidden;rotatable=0;points=[[0,0.5],[1,0.5]];portConstraint=eastwest;whiteSpace=wrap;" parent="mZZ4piZvKpgbZrroLsrH-1" vertex="1">
          <mxGeometry y="83" width="230" height="47" as="geometry" />
        </mxCell>
        <mxCell id="mZZ4piZvKpgbZrroLsrH-7" value="&lt;span style=&quot;font-weight: 400;&quot; data-teams=&quot;true&quot;&gt;&lt;strong&gt;CadastralDomainAPIClient&lt;/strong&gt;&lt;/span&gt;" style="swimlane;fontStyle=1;align=center;verticalAlign=middle;childLayout=stackLayout;horizontal=1;startSize=29;horizontalStack=0;resizeParent=1;resizeParentMax=0;resizeLast=0;collapsible=0;marginBottom=0;html=1;whiteSpace=wrap;fillColor=#f5f5f5;fontColor=#333333;strokeColor=#666666;" parent="uwC5ymK-V9znXdQjigwV-1" vertex="1">
          <mxGeometry x="909" y="1278.75" width="160" height="54" as="geometry" />
        </mxCell>
        <mxCell id="mZZ4piZvKpgbZrroLsrH-8" value="&amp;lt;&amp;lt;API Client&amp;gt;&amp;gt;" style="text;html=1;align=center;verticalAlign=middle;spacingLeft=4;spacingRight=4;overflow=hidden;rotatable=0;points=[[0,0.5],[1,0.5]];portConstraint=eastwest;whiteSpace=wrap;" parent="mZZ4piZvKpgbZrroLsrH-7" vertex="1">
          <mxGeometry y="29" width="160" height="25" as="geometry" />
        </mxCell>
        <mxCell id="mZZ4piZvKpgbZrroLsrH-9" value="1" style="ellipse;whiteSpace=wrap;html=1;aspect=fixed;" parent="uwC5ymK-V9znXdQjigwV-1" vertex="1">
          <mxGeometry x="978" y="1380" width="20" height="20" as="geometry" />
        </mxCell>
        <mxCell id="mZZ4piZvKpgbZrroLsrH-10" value="Use" style="endArrow=open;endSize=12;dashed=1;html=1;rounded=0;exitX=0.5;exitY=0;exitDx=0;exitDy=0;" parent="uwC5ymK-V9znXdQjigwV-1" source="mZZ4piZvKpgbZrroLsrH-9" target="mZZ4piZvKpgbZrroLsrH-7" edge="1">
          <mxGeometry width="160" relative="1" as="geometry">
            <mxPoint x="1272" y="1390" as="sourcePoint" />
            <mxPoint x="1270" y="1341" as="targetPoint" />
          </mxGeometry>
        </mxCell>
        <mxCell id="mZZ4piZvKpgbZrroLsrH-11" value="&amp;lt;&amp;lt;Component&amp;gt;&amp;gt;&lt;br&gt;&lt;strong style=&quot;color: rgb(51, 51, 51);&quot;&gt;&lt;strong&gt;CadastralDomainAPI&lt;/strong&gt;Translator&lt;/strong&gt;" style="swimlane;fontStyle=0;align=center;verticalAlign=top;childLayout=stackLayout;horizontal=1;startSize=55;horizontalStack=0;resizeParent=1;resizeParentMax=0;resizeLast=0;collapsible=0;marginBottom=0;html=1;whiteSpace=wrap;fillColor=#f5f5f5;fontColor=#333333;strokeColor=#666666;" parent="uwC5ymK-V9znXdQjigwV-1" vertex="1">
          <mxGeometry x="637" y="1489" width="290" height="160" as="geometry" />
        </mxCell>
        <mxCell id="mZZ4piZvKpgbZrroLsrH-12" value="" style="line;strokeWidth=1;align=left;verticalAlign=middle;spacingTop=-1;spacingLeft=3;spacingRight=3;rotatable=0;labelPosition=right;points=[];portConstraint=eastwest;" parent="mZZ4piZvKpgbZrroLsrH-11" vertex="1">
          <mxGeometry y="55" width="290" height="8" as="geometry" />
        </mxCell>
        <mxCell id="mZZ4piZvKpgbZrroLsrH-13" value="operations" style="text;html=1;align=center;verticalAlign=middle;spacingLeft=4;spacingRight=4;overflow=hidden;rotatable=0;points=[[0,0.5],[1,0.5]];portConstraint=eastwest;whiteSpace=wrap;" parent="mZZ4piZvKpgbZrroLsrH-11" vertex="1">
          <mxGeometry y="63" width="290" height="20" as="geometry" />
        </mxCell>
        <mxCell id="mZZ4piZvKpgbZrroLsrH-14" value="&lt;font style=&quot;color: rgb(0, 0, 204);&quot;&gt;&lt;b&gt;+jwksResponse(JwksKeySetDto response):&amp;nbsp;&lt;/b&gt;&lt;/font&gt;&lt;div&gt;&lt;span style=&quot;text-align: center;&quot;&gt;&lt;font style=&quot;color: rgb(0, 0, 204);&quot;&gt;&lt;b&gt;DevicesDataModelDto&lt;/b&gt;&lt;/font&gt;&lt;/span&gt;&lt;/div&gt;&lt;div&gt;&lt;span style=&quot;text-align: center;&quot;&gt;&lt;font style=&quot;color: rgb(0, 0, 204);&quot;&gt;&lt;b&gt;+cardDataRequest(String deviceId): String jwe&lt;/b&gt;&lt;/font&gt;&lt;/span&gt;&lt;/div&gt;&lt;div&gt;&lt;span style=&quot;text-align: center;&quot;&gt;&lt;font style=&quot;color: rgb(0, 0, 204);&quot;&gt;&lt;b&gt;+cardDataResponse(String jwe): DevicesDataModelDto&lt;/b&gt;&lt;/font&gt;&lt;/span&gt;&lt;/div&gt;" style="text;html=1;align=left;verticalAlign=middle;spacingLeft=4;spacingRight=4;overflow=hidden;rotatable=0;points=[[0,0.5],[1,0.5]];portConstraint=eastwest;whiteSpace=wrap;" parent="mZZ4piZvKpgbZrroLsrH-11" vertex="1">
          <mxGeometry y="83" width="290" height="77" as="geometry" />
        </mxCell>
        <mxCell id="mZZ4piZvKpgbZrroLsrH-16" value="" style="endArrow=block;startArrow=none;endFill=0;startFill=0;endSize=8;html=1;verticalAlign=bottom;dashed=1;labelBackgroundColor=none;rounded=0;jumpStyle=arc;jumpSize=12;" parent="uwC5ymK-V9znXdQjigwV-1" source="mZZ4piZvKpgbZrroLsrH-7" target="mZZ4piZvKpgbZrroLsrH-1" edge="1">
          <mxGeometry width="160" relative="1" as="geometry">
            <mxPoint x="1682" y="1286" as="sourcePoint" />
            <mxPoint x="1701" y="1065" as="targetPoint" />
          </mxGeometry>
        </mxCell>
        <mxCell id="mZZ4piZvKpgbZrroLsrH-17" value="Use" style="endArrow=open;endSize=12;dashed=1;html=1;rounded=0;" parent="uwC5ymK-V9znXdQjigwV-1" source="mZZ4piZvKpgbZrroLsrH-7" target="mZZ4piZvKpgbZrroLsrH-11" edge="1">
          <mxGeometry width="160" relative="1" as="geometry">
            <mxPoint x="1248" y="1341" as="sourcePoint" />
            <mxPoint x="1151" y="1468" as="targetPoint" />
          </mxGeometry>
        </mxCell>
        <mxCell id="mZZ4piZvKpgbZrroLsrH-18" value="&lt;div style=&quot;text-align: center;&quot;&gt;&lt;font color=&quot;#000000&quot;&gt;JwksKeySet&lt;/font&gt;&lt;/div&gt;" style="swimlane;fontStyle=1;align=center;verticalAlign=middle;childLayout=stackLayout;horizontal=1;startSize=29;horizontalStack=0;resizeParent=1;resizeParentMax=0;resizeLast=0;collapsible=0;marginBottom=0;html=1;whiteSpace=wrap;fillColor=#f5f5f5;fontColor=#333333;strokeColor=#666666;" parent="uwC5ymK-V9znXdQjigwV-1" vertex="1">
          <mxGeometry x="717" y="1739" width="130" height="53" as="geometry" />
        </mxCell>
        <mxCell id="mZZ4piZvKpgbZrroLsrH-19" value="&amp;lt;&amp;lt;Java Bean&amp;gt;&amp;gt;" style="text;html=1;align=center;verticalAlign=middle;spacingLeft=4;spacingRight=4;overflow=hidden;rotatable=0;points=[[0,0.5],[1,0.5]];portConstraint=eastwest;whiteSpace=wrap;" parent="mZZ4piZvKpgbZrroLsrH-18" vertex="1">
          <mxGeometry y="29" width="130" height="24" as="geometry" />
        </mxCell>
        <mxCell id="mZZ4piZvKpgbZrroLsrH-20" value="" style="endArrow=open;endSize=12;dashed=1;html=1;rounded=0;" parent="uwC5ymK-V9znXdQjigwV-1" source="mZZ4piZvKpgbZrroLsrH-11" target="mZZ4piZvKpgbZrroLsrH-18" edge="1">
          <mxGeometry width="160" relative="1" as="geometry">
            <mxPoint x="1094" y="1649.5" as="sourcePoint" />
            <mxPoint x="1095" y="1749.5" as="targetPoint" />
          </mxGeometry>
        </mxCell>
        <mxCell id="4UN8ZMbQb5pSf3kRTYI5-17" value="&lt;div style=&quot;text-align: center;&quot;&gt;&lt;font color=&quot;#000000&quot;&gt;GetConsultDetailedListDevicesResponseDto&lt;/font&gt;&lt;br&gt;&lt;/div&gt;" style="swimlane;fontStyle=1;align=center;verticalAlign=middle;childLayout=stackLayout;horizontal=1;startSize=29;horizontalStack=0;resizeParent=1;resizeParentMax=0;resizeLast=0;collapsible=0;marginBottom=0;html=1;whiteSpace=wrap;fillColor=#f5f5f5;fontColor=#333333;strokeColor=#666666;" parent="uwC5ymK-V9znXdQjigwV-1" vertex="1">
          <mxGeometry x="1239" y="1739" width="260" height="53" as="geometry" />
        </mxCell>
        <mxCell id="4UN8ZMbQb5pSf3kRTYI5-18" value="&amp;lt;&amp;lt;Java Bean&amp;gt;&amp;gt;" style="text;html=1;align=center;verticalAlign=middle;spacingLeft=4;spacingRight=4;overflow=hidden;rotatable=0;points=[[0,0.5],[1,0.5]];portConstraint=eastwest;whiteSpace=wrap;" parent="4UN8ZMbQb5pSf3kRTYI5-17" vertex="1">
          <mxGeometry y="29" width="260" height="24" as="geometry" />
        </mxCell>
        <mxCell id="4UN8ZMbQb5pSf3kRTYI5-19" value="" style="endArrow=open;endSize=12;dashed=1;html=1;rounded=0;" parent="uwC5ymK-V9znXdQjigwV-1" source="uwC5ymK-V9znXdQjigwV-123" target="4UN8ZMbQb5pSf3kRTYI5-17" edge="1">
          <mxGeometry width="160" relative="1" as="geometry">
            <mxPoint x="1113" y="1689.5" as="sourcePoint" />
            <mxPoint x="1100" y="1749.5" as="targetPoint" />
          </mxGeometry>
        </mxCell>
        <mxCell id="C7qDj0bJjl5GAFUgrea4-0" value="&lt;div style=&quot;text-align: left;&quot;&gt;&lt;span style=&quot;background-color: transparent; text-align: center;&quot;&gt;&lt;font color=&quot;#000000&quot;&gt;ReissuePhysicalDeviceRequest&lt;/font&gt;&lt;/span&gt;&lt;span style=&quot;background-color: transparent;&quot;&gt;&lt;font style=&quot;color: rgb(0, 0, 0);&quot;&gt;Dto&lt;/font&gt;&lt;/span&gt;&lt;/div&gt;" style="swimlane;fontStyle=1;align=center;verticalAlign=middle;childLayout=stackLayout;horizontal=1;startSize=29;horizontalStack=0;resizeParent=1;resizeParentMax=0;resizeLast=0;collapsible=0;marginBottom=0;html=1;whiteSpace=wrap;fillColor=#f5f5f5;fontColor=#333333;strokeColor=#666666;" vertex="1" parent="uwC5ymK-V9znXdQjigwV-1">
          <mxGeometry x="1510" y="1739" width="210" height="53" as="geometry" />
        </mxCell>
        <mxCell id="C7qDj0bJjl5GAFUgrea4-1" value="&amp;lt;&amp;lt;Java Bean&amp;gt;&amp;gt;" style="text;html=1;align=center;verticalAlign=middle;spacingLeft=4;spacingRight=4;overflow=hidden;rotatable=0;points=[[0,0.5],[1,0.5]];portConstraint=eastwest;whiteSpace=wrap;" vertex="1" parent="C7qDj0bJjl5GAFUgrea4-0">
          <mxGeometry y="29" width="210" height="24" as="geometry" />
        </mxCell>
        <mxCell id="C7qDj0bJjl5GAFUgrea4-2" value="" style="endArrow=open;endSize=12;dashed=1;html=1;rounded=0;" edge="1" parent="uwC5ymK-V9znXdQjigwV-1" source="uwC5ymK-V9znXdQjigwV-123" target="C7qDj0bJjl5GAFUgrea4-0">
          <mxGeometry width="160" relative="1" as="geometry">
            <mxPoint x="1343" y="1689" as="sourcePoint" />
            <mxPoint x="1368" y="1749" as="targetPoint" />
          </mxGeometry>
        </mxCell>
        <mxCell id="C7qDj0bJjl5GAFUgrea4-3" value="&lt;div style=&quot;text-align: center;&quot;&gt;&lt;font color=&quot;#000000&quot;&gt;ReissuePhysicalDeviceSuccessResponseDto&lt;/font&gt;&lt;/div&gt;" style="swimlane;fontStyle=1;align=center;verticalAlign=middle;childLayout=stackLayout;horizontal=1;startSize=29;horizontalStack=0;resizeParent=1;resizeParentMax=0;resizeLast=0;collapsible=0;marginBottom=0;html=1;whiteSpace=wrap;fillColor=#f5f5f5;fontColor=#333333;strokeColor=#666666;" vertex="1" parent="uwC5ymK-V9znXdQjigwV-1">
          <mxGeometry x="1730" y="1739" width="270" height="53" as="geometry" />
        </mxCell>
        <mxCell id="C7qDj0bJjl5GAFUgrea4-4" value="&amp;lt;&amp;lt;Java Bean&amp;gt;&amp;gt;" style="text;html=1;align=center;verticalAlign=middle;spacingLeft=4;spacingRight=4;overflow=hidden;rotatable=0;points=[[0,0.5],[1,0.5]];portConstraint=eastwest;whiteSpace=wrap;" vertex="1" parent="C7qDj0bJjl5GAFUgrea4-3">
          <mxGeometry y="29" width="270" height="24" as="geometry" />
        </mxCell>
        <mxCell id="C7qDj0bJjl5GAFUgrea4-5" value="" style="endArrow=open;endSize=12;dashed=1;html=1;rounded=0;" edge="1" parent="uwC5ymK-V9znXdQjigwV-1" source="uwC5ymK-V9znXdQjigwV-123" target="C7qDj0bJjl5GAFUgrea4-3">
          <mxGeometry width="160" relative="1" as="geometry">
            <mxPoint x="1472" y="1689" as="sourcePoint" />
            <mxPoint x="1578" y="1749" as="targetPoint" />
          </mxGeometry>
        </mxCell>
      </root>
    </mxGraphModel>
  </diagram>
  <diagram id="Ol9RPOe7KJ80rOkHRpJa" name="Flujo MPB2 MQ">
    <mxGraphModel dx="2150" dy="820" grid="1" gridSize="10" guides="1" tooltips="1" connect="1" arrows="1" fold="1" page="1" pageScale="1" pageWidth="827" pageHeight="1169" math="0" shadow="0">
      <root>
        <mxCell id="0" />
        <mxCell id="1" parent="0" />
        <mxCell id="DPpUzMBIfOouASpvIN23-2" style="edgeStyle=orthogonalEdgeStyle;rounded=0;orthogonalLoop=1;jettySize=auto;html=1;" parent="1" source="7V64ywcQ7KQXjAn3rCrc-2" target="Jrj3K5oM6XycJpFboLAt-4" edge="1">
          <mxGeometry relative="1" as="geometry" />
        </mxCell>
        <mxCell id="ToTWRtz5ZoGR3igLia_3-5" style="edgeStyle=orthogonalEdgeStyle;rounded=0;orthogonalLoop=1;jettySize=auto;html=1;" parent="1" source="7V64ywcQ7KQXjAn3rCrc-11" target="ToTWRtz5ZoGR3igLia_3-4" edge="1">
          <mxGeometry relative="1" as="geometry" />
        </mxCell>
        <mxCell id="7V64ywcQ7KQXjAn3rCrc-15" value="ejecuta" style="startArrow=none;endArrow=block;entryX=0.5;entryY=-0.01;rounded=0;edgeStyle=orthogonalEdgeStyle;" parent="1" source="7V64ywcQ7KQXjAn3rCrc-3" target="7V64ywcQ7KQXjAn3rCrc-4" edge="1">
          <mxGeometry relative="1" as="geometry">
            <mxPoint x="405" y="410" as="sourcePoint" />
          </mxGeometry>
        </mxCell>
        <mxCell id="7V64ywcQ7KQXjAn3rCrc-26" value="Redis Stream" style="swimlane;whiteSpace=wrap;html=1;" parent="1" vertex="1">
          <mxGeometry x="-60" width="310" height="1440" as="geometry" />
        </mxCell>
        <mxCell id="Jrj3K5oM6XycJpFboLAt-5" value="" style="edgeStyle=orthogonalEdgeStyle;rounded=0;orthogonalLoop=1;jettySize=auto;html=1;" parent="7V64ywcQ7KQXjAn3rCrc-26" source="Jrj3K5oM6XycJpFboLAt-3" target="Jrj3K5oM6XycJpFboLAt-4" edge="1">
          <mxGeometry relative="1" as="geometry" />
        </mxCell>
        <mxCell id="Jrj3K5oM6XycJpFboLAt-3" value="" style="points=[[0.145,0.145,0],[0.5,0,0],[0.855,0.145,0],[1,0.5,0],[0.855,0.855,0],[0.5,1,0],[0.145,0.855,0],[0,0.5,0]];shape=mxgraph.bpmn.event;html=1;verticalLabelPosition=bottom;labelBackgroundColor=#ffffff;verticalAlign=top;align=center;perimeter=ellipsePerimeter;outlineConnect=0;aspect=fixed;outline=standard;symbol=general;" parent="7V64ywcQ7KQXjAn3rCrc-26" vertex="1">
          <mxGeometry x="140" y="40" width="30" height="30" as="geometry" />
        </mxCell>
        <mxCell id="Jrj3K5oM6XycJpFboLAt-4" value="Launcher publica mensaje en Stream &quot;&lt;b style=&quot;text-align: left; background-color: rgb(251, 251, 251);&quot;&gt;&lt;b style=&quot;text-align: center;&quot;&gt;request-&lt;/b&gt;&lt;b style=&quot;text-align: center;&quot;&gt;device-reissuance&lt;/b&gt;&lt;b style=&quot;text-align: center;&quot;&gt;-mpb2&lt;/b&gt;&lt;b&gt;-stream&lt;/b&gt;&quot;&lt;/b&gt;" style="whiteSpace=wrap;html=1;verticalAlign=top;labelBackgroundColor=#ffffff;" parent="7V64ywcQ7KQXjAn3rCrc-26" vertex="1">
          <mxGeometry x="40" y="135" width="230" height="75" as="geometry" />
        </mxCell>
        <mxCell id="7V64ywcQ7KQXjAn3rCrc-27" value="&lt;b&gt;account-device-inquiry&lt;/b&gt;" style="swimlane;whiteSpace=wrap;html=1;" parent="1" vertex="1">
          <mxGeometry x="250" width="310" height="1440" as="geometry" />
        </mxCell>
        <mxCell id="7V64ywcQ7KQXjAn3rCrc-2" value="Recibir mensaje de Redis Stream" style="whiteSpace=wrap;strokeWidth=2;" parent="7V64ywcQ7KQXjAn3rCrc-27" vertex="1">
          <mxGeometry x="40" y="149" width="230" height="47" as="geometry" />
        </mxCell>
        <mxCell id="7V64ywcQ7KQXjAn3rCrc-3" value="Procesar datos y realizar consulta de datos de tarjeta actual en PLARD" style="whiteSpace=wrap;strokeWidth=2;fillColor=#ffe6cc;strokeColor=#d79b00;" parent="7V64ywcQ7KQXjAn3rCrc-27" vertex="1">
          <mxGeometry x="40" y="240" width="230" height="50" as="geometry" />
        </mxCell>
        <mxCell id="7V64ywcQ7KQXjAn3rCrc-14" value="" style="curved=1;startArrow=none;endArrow=block;exitX=0.5;exitY=1;entryX=0.5;entryY=0;rounded=0;" parent="7V64ywcQ7KQXjAn3rCrc-27" source="7V64ywcQ7KQXjAn3rCrc-2" target="7V64ywcQ7KQXjAn3rCrc-3" edge="1">
          <mxGeometry relative="1" as="geometry">
            <Array as="points" />
          </mxGeometry>
        </mxCell>
        <mxCell id="TQKvXvZxbfKU3Vj2HPAs-1" value="Obtener PAN tarjeta reemitida desde DeviceID" style="whiteSpace=wrap;strokeWidth=2;fillColor=#f8cecc;strokeColor=#b85450;" parent="7V64ywcQ7KQXjAn3rCrc-27" vertex="1">
          <mxGeometry x="41" y="602" width="230" height="50" as="geometry" />
        </mxCell>
        <mxCell id="TQKvXvZxbfKU3Vj2HPAs-6" value="Generar Request (JWT + JWE)" style="whiteSpace=wrap;strokeWidth=2;fillColor=#f8cecc;strokeColor=#b85450;" parent="7V64ywcQ7KQXjAn3rCrc-27" vertex="1">
          <mxGeometry x="41" y="723" width="230" height="50" as="geometry" />
        </mxCell>
        <mxCell id="TQKvXvZxbfKU3Vj2HPAs-10" value="Desencriptar JWE" style="whiteSpace=wrap;strokeWidth=2;fillColor=#f8cecc;strokeColor=#b85450;" parent="7V64ywcQ7KQXjAn3rCrc-27" vertex="1">
          <mxGeometry x="40" y="833" width="230" height="50" as="geometry" />
        </mxCell>
        <mxCell id="97hnwuouVTCs4FXiuhdW-2" value="" style="edgeStyle=orthogonalEdgeStyle;rounded=0;orthogonalLoop=1;jettySize=auto;html=1;" parent="7V64ywcQ7KQXjAn3rCrc-27" source="x-OzrVc1f87XB2SiIHPI-7" target="97hnwuouVTCs4FXiuhdW-1" edge="1">
          <mxGeometry relative="1" as="geometry" />
        </mxCell>
        <mxCell id="x-OzrVc1f87XB2SiIHPI-7" value="Obtener la fecha de expiración" style="whiteSpace=wrap;strokeWidth=2;fillColor=#ffe6cc;strokeColor=#d79b00;" parent="7V64ywcQ7KQXjAn3rCrc-27" vertex="1">
          <mxGeometry x="40" y="360" width="230" height="50" as="geometry" />
        </mxCell>
        <mxCell id="x-OzrVc1f87XB2SiIHPI-24" value="Procesar respuesta" style="whiteSpace=wrap;strokeWidth=2;" parent="7V64ywcQ7KQXjAn3rCrc-27" vertex="1">
          <mxGeometry x="40" y="943" width="230" height="50" as="geometry" />
        </mxCell>
        <mxCell id="7V64ywcQ7KQXjAn3rCrc-9" value="Construir respuesta para el Launcher&#xa;Mensaje en formato PS7" style="whiteSpace=wrap;strokeWidth=2;fillColor=#f8cecc;strokeColor=#b85450;" parent="7V64ywcQ7KQXjAn3rCrc-27" vertex="1">
          <mxGeometry x="40" y="1023" width="230" height="50" as="geometry" />
        </mxCell>
        <mxCell id="x-OzrVc1f87XB2SiIHPI-12" style="edgeStyle=orthogonalEdgeStyle;rounded=0;orthogonalLoop=1;jettySize=auto;html=1;" parent="7V64ywcQ7KQXjAn3rCrc-27" source="TQKvXvZxbfKU3Vj2HPAs-10" target="x-OzrVc1f87XB2SiIHPI-24" edge="1">
          <mxGeometry relative="1" as="geometry" />
        </mxCell>
        <mxCell id="x-OzrVc1f87XB2SiIHPI-26" style="edgeStyle=orthogonalEdgeStyle;rounded=0;orthogonalLoop=1;jettySize=auto;html=1;" parent="7V64ywcQ7KQXjAn3rCrc-27" source="x-OzrVc1f87XB2SiIHPI-24" target="7V64ywcQ7KQXjAn3rCrc-9" edge="1">
          <mxGeometry relative="1" as="geometry" />
        </mxCell>
        <mxCell id="ToTWRtz5ZoGR3igLia_3-1" value="" style="points=[[0.145,0.145,0],[0.5,0,0],[0.855,0.145,0],[1,0.5,0],[0.855,0.855,0],[0.5,1,0],[0.145,0.855,0],[0,0.5,0]];shape=mxgraph.bpmn.event;html=1;verticalLabelPosition=bottom;labelBackgroundColor=#ffffff;verticalAlign=top;align=center;perimeter=ellipsePerimeter;outlineConnect=0;aspect=fixed;outline=end;symbol=terminate;" parent="7V64ywcQ7KQXjAn3rCrc-27" vertex="1">
          <mxGeometry x="131" y="1311" width="50" height="50" as="geometry" />
        </mxCell>
        <mxCell id="lcdBoF8WHobajaU-kiOx-5" style="edgeStyle=orthogonalEdgeStyle;rounded=0;orthogonalLoop=1;jettySize=auto;html=1;exitX=0.5;exitY=1;exitDx=0;exitDy=0;" parent="7V64ywcQ7KQXjAn3rCrc-27" edge="1">
          <mxGeometry relative="1" as="geometry">
            <mxPoint x="156" y="930" as="sourcePoint" />
            <mxPoint x="156" y="930" as="targetPoint" />
          </mxGeometry>
        </mxCell>
        <mxCell id="7V64ywcQ7KQXjAn3rCrc-11" value="Generar pista de auditoría" style="whiteSpace=wrap;strokeWidth=2;fillColor=#f8cecc;strokeColor=#b85450;" parent="7V64ywcQ7KQXjAn3rCrc-27" vertex="1">
          <mxGeometry x="41" y="1208" width="230" height="50" as="geometry" />
        </mxCell>
        <mxCell id="7V64ywcQ7KQXjAn3rCrc-24" value="" style="curved=1;startArrow=none;endArrow=block;exitX=0.75;exitY=1;entryX=0.75;entryY=0;rounded=0;exitDx=0;exitDy=0;entryDx=0;entryDy=0;" parent="7V64ywcQ7KQXjAn3rCrc-27" source="7V64ywcQ7KQXjAn3rCrc-9" target="7V64ywcQ7KQXjAn3rCrc-11" edge="1">
          <mxGeometry relative="1" as="geometry">
            <Array as="points" />
          </mxGeometry>
        </mxCell>
        <mxCell id="7V64ywcQ7KQXjAn3rCrc-25" value="" style="curved=1;startArrow=none;endArrow=block;exitX=0.5;exitY=0.99;rounded=0;" parent="7V64ywcQ7KQXjAn3rCrc-27" source="7V64ywcQ7KQXjAn3rCrc-11" target="ToTWRtz5ZoGR3igLia_3-1" edge="1">
          <mxGeometry relative="1" as="geometry">
            <Array as="points" />
          </mxGeometry>
        </mxCell>
        <mxCell id="97hnwuouVTCs4FXiuhdW-1" value="Ejecutar la reemisión" style="whiteSpace=wrap;strokeWidth=2;fillColor=#f8cecc;strokeColor=#b85450;" parent="7V64ywcQ7KQXjAn3rCrc-27" vertex="1">
          <mxGeometry x="40" y="440" width="230" height="50" as="geometry" />
        </mxCell>
        <mxCell id="Jrj3K5oM6XycJpFboLAt-1" value="PLARD" style="swimlane;whiteSpace=wrap;html=1;" parent="1" vertex="1">
          <mxGeometry x="560" width="310" height="1440" as="geometry" />
        </mxCell>
        <mxCell id="7V64ywcQ7KQXjAn3rCrc-4" value="Consulta dispositivo&#xa;/life-cycle/v4/devices/details" style="whiteSpace=wrap;strokeWidth=2;fillColor=#d5e8d4;strokeColor=#82b366;" parent="Jrj3K5oM6XycJpFboLAt-1" vertex="1">
          <mxGeometry x="37" y="310" width="230" height="50" as="geometry" />
        </mxCell>
        <mxCell id="TQKvXvZxbfKU3Vj2HPAs-4" value="Obtener JWKS PLARD&#xa;/v1/jwks" style="whiteSpace=wrap;strokeWidth=2;fillColor=#d5e8d4;strokeColor=#82b366;" parent="Jrj3K5oM6XycJpFboLAt-1" vertex="1">
          <mxGeometry x="40" y="652" width="230" height="50" as="geometry" />
        </mxCell>
        <mxCell id="TQKvXvZxbfKU3Vj2HPAs-8" value="Obtener PAN&#xa;/v1/card-data" style="whiteSpace=wrap;strokeWidth=2;fillColor=#d5e8d4;strokeColor=#82b366;" parent="Jrj3K5oM6XycJpFboLAt-1" vertex="1">
          <mxGeometry x="40" y="773" width="230" height="50" as="geometry" />
        </mxCell>
        <mxCell id="97hnwuouVTCs4FXiuhdW-3" value="Reemitir dispositivo&#xa;/life-cycle/v3/devices/issue" style="whiteSpace=wrap;strokeWidth=2;fillColor=#d5e8d4;strokeColor=#82b366;" parent="Jrj3K5oM6XycJpFboLAt-1" vertex="1">
          <mxGeometry x="40" y="510" width="230" height="50" as="geometry" />
        </mxCell>
        <mxCell id="x-OzrVc1f87XB2SiIHPI-9" value="Respuesta" style="edgeStyle=orthogonalEdgeStyle;rounded=0;orthogonalLoop=1;jettySize=auto;html=1;entryX=0.5;entryY=0;entryDx=0;entryDy=0;" parent="1" source="7V64ywcQ7KQXjAn3rCrc-4" target="x-OzrVc1f87XB2SiIHPI-7" edge="1">
          <mxGeometry x="0.0046" relative="1" as="geometry">
            <mxPoint x="587" y="475" as="sourcePoint" />
            <mxPoint x="436" y="1420" as="targetPoint" />
            <mxPoint as="offset" />
          </mxGeometry>
        </mxCell>
        <mxCell id="TQKvXvZxbfKU3Vj2HPAs-5" value="" style="edgeStyle=orthogonalEdgeStyle;rounded=0;orthogonalLoop=1;jettySize=auto;html=1;entryX=0.5;entryY=0;entryDx=0;entryDy=0;" parent="1" source="TQKvXvZxbfKU3Vj2HPAs-1" target="TQKvXvZxbfKU3Vj2HPAs-4" edge="1">
          <mxGeometry relative="1" as="geometry" />
        </mxCell>
        <mxCell id="TQKvXvZxbfKU3Vj2HPAs-7" value="Respuesta" style="edgeStyle=orthogonalEdgeStyle;rounded=0;orthogonalLoop=1;jettySize=auto;html=1;" parent="1" source="TQKvXvZxbfKU3Vj2HPAs-4" target="TQKvXvZxbfKU3Vj2HPAs-6" edge="1">
          <mxGeometry relative="1" as="geometry" />
        </mxCell>
        <mxCell id="TQKvXvZxbfKU3Vj2HPAs-9" value="" style="edgeStyle=orthogonalEdgeStyle;rounded=0;orthogonalLoop=1;jettySize=auto;html=1;entryX=0.5;entryY=0;entryDx=0;entryDy=0;" parent="1" source="TQKvXvZxbfKU3Vj2HPAs-6" target="TQKvXvZxbfKU3Vj2HPAs-8" edge="1">
          <mxGeometry relative="1" as="geometry" />
        </mxCell>
        <mxCell id="TQKvXvZxbfKU3Vj2HPAs-11" value="Respuesta" style="edgeStyle=orthogonalEdgeStyle;rounded=0;orthogonalLoop=1;jettySize=auto;html=1;" parent="1" source="TQKvXvZxbfKU3Vj2HPAs-8" target="TQKvXvZxbfKU3Vj2HPAs-10" edge="1">
          <mxGeometry relative="1" as="geometry" />
        </mxCell>
        <mxCell id="x-OzrVc1f87XB2SiIHPI-27" value="Publicar mensaje respuesta&#xa;response-device-reissuance-mpb2-stream&#xa;" style="whiteSpace=wrap;strokeWidth=2;" parent="1" vertex="1">
          <mxGeometry x="-36" y="1188" width="260" height="78" as="geometry" />
        </mxCell>
        <mxCell id="x-OzrVc1f87XB2SiIHPI-28" value="" style="edgeStyle=orthogonalEdgeStyle;rounded=0;orthogonalLoop=1;jettySize=auto;html=1;exitX=0.25;exitY=1;exitDx=0;exitDy=0;" parent="1" source="7V64ywcQ7KQXjAn3rCrc-9" target="x-OzrVc1f87XB2SiIHPI-27" edge="1">
          <mxGeometry relative="1" as="geometry">
            <Array as="points">
              <mxPoint x="347" y="1138" />
              <mxPoint x="94" y="1138" />
            </Array>
          </mxGeometry>
        </mxCell>
        <mxCell id="ToTWRtz5ZoGR3igLia_3-2" value="Kafka" style="swimlane;whiteSpace=wrap;html=1;" parent="1" vertex="1">
          <mxGeometry x="870" width="310" height="1440" as="geometry" />
        </mxCell>
        <mxCell id="ToTWRtz5ZoGR3igLia_3-4" value="Publicar pista de auditoría en tópico de Kafka" style="whiteSpace=wrap;strokeWidth=2;" parent="ToTWRtz5ZoGR3igLia_3-2" vertex="1">
          <mxGeometry x="24" y="1208" width="260" height="50" as="geometry" />
        </mxCell>
        <mxCell id="97hnwuouVTCs4FXiuhdW-4" value="ejecuta" style="edgeStyle=orthogonalEdgeStyle;rounded=0;orthogonalLoop=1;jettySize=auto;html=1;" parent="1" source="97hnwuouVTCs4FXiuhdW-1" target="97hnwuouVTCs4FXiuhdW-3" edge="1">
          <mxGeometry relative="1" as="geometry">
            <Array as="points">
              <mxPoint x="710" y="465" />
            </Array>
          </mxGeometry>
        </mxCell>
        <mxCell id="-xgCjKRJ5vfDKmL_0fWU-1" value="Respuesta" style="edgeStyle=orthogonalEdgeStyle;rounded=0;orthogonalLoop=1;jettySize=auto;html=1;" parent="1" source="97hnwuouVTCs4FXiuhdW-3" target="TQKvXvZxbfKU3Vj2HPAs-1" edge="1">
          <mxGeometry relative="1" as="geometry">
            <mxPoint x="406" y="630" as="targetPoint" />
          </mxGeometry>
        </mxCell>
      </root>
    </mxGraphModel>
  </diagram>
</mxfile>
